<?xml version="1.0" encoding="UTF-8"?>
<svg width="112px" height="41px" viewBox="0 0 112 41" version="1.1" xmlns="http://www.w3.org/2000/svg" xmlns:xlink="http://www.w3.org/1999/xlink">
    <!-- Generator: Sketch 47.1 (45422) - http://www.bohemiancoding.com/sketch -->
    <title>Artboard 2</title>
    <desc>Created with Sketch.</desc>
    <defs>
        <polygon id="path-1" points="6.89946837e-20 13.9999045 13.9998727 13.9999045 13.9998727 2.2608178e-15 5.17460128e-20 0 0 13.9999045"></polygon>
        <polygon id="path-3" points="6.89946837e-20 13.9999045 13.9998727 13.9999045 13.9998727 2.2608178e-15 5.17460128e-20 0 0 13.9999045"></polygon>
    </defs>
    <g id="Page-1" stroke="none" stroke-width="1" fill="none" fill-rule="evenodd">
        <g id="Artboard-2">
            <g id="Group">
                <g id="Group-2" transform="translate(0.000000, 3.000000)" fill-rule="nonzero" fill="#89909A">
                    <path d="M11.776,0 L1.224,0 C0.459,0 0,0.502 0,1.34 L0,7.702 C0,8.54 0.459,9.042 1.224,9.042 L4.716,9.042 L4.716,10.186 L3.492,11.302 C3.237,11.526 3.416,12 3.722,12 L9.252,12 C9.559,12 9.737,11.526 9.482,11.302 L8.233,10.186 L8.233,9.042 L11.776,9.042 C12.541,9.042 13,8.54 13,7.702 L13,1.34 C13,0.502 12.541,0 11.776,0 Z M8.259,11.219 L4.69,11.219 L5.302,10.689 C5.38068007,10.605387 5.42587965,10.4957691 5.429,10.381 L5.429,9.041 L7.519,9.041 L7.519,10.381 C7.519,10.549 7.596,10.688 7.724,10.744 L8.259,11.219 L8.259,11.219 Z M12.286,7.702 C12.286,8.121 12.159,8.26 11.776,8.26 L1.224,8.26 C0.841,8.26 0.714,8.12 0.714,7.702 L0.714,1.34 C0.714,0.92 0.841,0.781 1.224,0.781 L11.776,0.781 C12.159,0.781 12.286,0.921 12.286,1.34 L12.286,7.702 Z" id="Shape"></path>
                    <path d="M11.522,1.395 L1.427,1.395 C1.3,1.395 1.198,1.535 1.198,1.675 L1.198,7.367 C1.198,7.507 1.3,7.619 1.428,7.619 L11.522,7.619 C11.649,7.619 11.751,7.507 11.751,7.367 L11.751,1.674 C11.751,1.534 11.649,1.395 11.521,1.395 L11.522,1.395 Z M11.267,7.088 L1.657,7.088 L1.657,1.926 L11.267,1.926 L11.267,7.088 Z" id="Shape"></path>
                </g>
                <g id="Group-3" transform="translate(0.000000, 26.000000)" fill-rule="nonzero" fill="#E2003B">
                    <path d="M11.776,0 L1.224,0 C0.459,0 0,0.502 0,1.34 L0,7.702 C0,8.54 0.459,9.042 1.224,9.042 L4.716,9.042 L4.716,10.186 L3.492,11.302 C3.237,11.526 3.416,12 3.722,12 L9.252,12 C9.559,12 9.737,11.526 9.482,11.302 L8.233,10.186 L8.233,9.042 L11.776,9.042 C12.541,9.042 13,8.54 13,7.702 L13,1.34 C13,0.502 12.541,0 11.776,0 Z M8.259,11.219 L4.69,11.219 L5.302,10.689 C5.38068007,10.605387 5.42587965,10.4957691 5.429,10.381 L5.429,9.041 L7.519,9.041 L7.519,10.381 C7.519,10.549 7.596,10.688 7.724,10.744 L8.259,11.219 L8.259,11.219 Z M12.286,7.702 C12.286,8.121 12.159,8.26 11.776,8.26 L1.224,8.26 C0.841,8.26 0.714,8.12 0.714,7.702 L0.714,1.34 C0.714,0.92 0.841,0.781 1.224,0.781 L11.776,0.781 C12.159,0.781 12.286,0.921 12.286,1.34 L12.286,7.702 Z" id="Shape"></path>
                    <path d="M11.522,1.395 L1.427,1.395 C1.3,1.395 1.198,1.535 1.198,1.675 L1.198,7.367 C1.198,7.507 1.3,7.619 1.428,7.619 L11.522,7.619 C11.649,7.619 11.751,7.507 11.751,7.367 L11.751,1.674 C11.751,1.534 11.649,1.395 11.521,1.395 L11.522,1.395 Z M11.267,7.088 L1.657,7.088 L1.657,1.926 L11.267,1.926 L11.267,7.088 Z" id="Shape"></path>
                </g>
                <path d="M33.5,11.8750413 C33.499588,11.9035892 33.4965755,11.9320401 33.491,11.9600413 L30.404,8.92904129 L33.491,5.89704129 C33.4963826,5.92507148 33.4993932,5.95350544 33.5,5.98204129 L33.5,11.8750413 L33.5,11.8750413 Z M33,12.3660413 L24,12.3660413 C23.9430416,12.3655122 23.8865813,12.3553697 23.833,12.3360413 L26.949,9.27604129 L27.807,10.1190413 C27.9919802,10.3004361 28.2409223,10.4017372 28.5,10.4010413 C28.75,10.4010413 29.001,10.3070413 29.192,10.1190413 L30.051,9.27604129 L33.167,12.3360413 C33.113399,12.355296 33.0569513,12.3654363 33,12.3660413 L33,12.3660413 Z M23.5,11.8750413 L23.5,5.98204129 C23.500412,5.95349341 23.5034245,5.92504246 23.509,5.89704129 L26.596,8.92904129 L23.509,11.9600413 C23.5036174,11.9320111 23.5006068,11.9035771 23.5,11.8750413 L23.5,11.8750413 Z M24,5.49104129 L33,5.49104129 C33.059,5.49104129 33.114,5.50304129 33.167,5.52104129 L28.839,9.77104129 C28.6514165,9.95739722 28.3485835,9.95739722 28.161,9.77104129 L23.833,5.52104129 C23.886551,5.5016002 23.9430307,5.49145415 24,5.49104129 L24,5.49104129 Z M33,5.00004129 L24,5.00004129 C23.448,5.00004129 23,5.44004129 23,5.98204129 L23,11.8750413 C23,12.4170413 23.448,12.8570413 24,12.8570413 L33,12.8570413 C33.552,12.8570413 34,12.4170413 34,11.8750413 L34,5.98204129 C33.9976239,5.71920833 33.8909295,5.46808549 33.7033907,5.28392243 C33.515852,5.09975938 33.2628328,4.99764348 33,5.00004129 L33,5.00004129 Z" id="Shape" stroke="#89909A" stroke-width="0.2" fill="#89909A" fill-rule="nonzero"></path>
                <path d="M33.5,34.8750413 C33.499588,34.9035892 33.4965755,34.9320401 33.491,34.9600413 L30.404,31.9290413 L33.491,28.8970413 C33.4963826,28.9250715 33.4993932,28.9535054 33.5,28.9820413 L33.5,34.8750413 L33.5,34.8750413 Z M33,35.3660413 L24,35.3660413 C23.9430416,35.3655122 23.8865813,35.3553697 23.833,35.3360413 L26.949,32.2760413 L27.807,33.1190413 C27.9919802,33.3004361 28.2409223,33.4017372 28.5,33.4010413 C28.75,33.4010413 29.001,33.3070413 29.192,33.1190413 L30.051,32.2760413 L33.167,35.3360413 C33.113399,35.355296 33.0569513,35.3654363 33,35.3660413 L33,35.3660413 Z M23.5,34.8750413 L23.5,28.9820413 C23.500412,28.9534934 23.5034245,28.9250425 23.509,28.8970413 L26.596,31.9290413 L23.509,34.9600413 C23.5036174,34.9320111 23.5006068,34.9035771 23.5,34.8750413 L23.5,34.8750413 Z M24,28.4910413 L33,28.4910413 C33.059,28.4910413 33.114,28.5030413 33.167,28.5210413 L28.839,32.7710413 C28.6514165,32.9573972 28.3485835,32.9573972 28.161,32.7710413 L23.833,28.5210413 C23.886551,28.5016002 23.9430307,28.4914541 24,28.4910413 L24,28.4910413 Z M33,28.0000413 L24,28.0000413 C23.448,28.0000413 23,28.4400413 23,28.9820413 L23,34.8750413 C23,35.4170413 23.448,35.8570413 24,35.8570413 L33,35.8570413 C33.552,35.8570413 34,35.4170413 34,34.8750413 L34,28.9820413 C33.9976239,28.7192083 33.8909295,28.4680855 33.7033907,28.2839224 C33.515852,28.0997594 33.2628328,27.9976435 33,28.0000413 L33,28.0000413 Z" id="Shape" stroke="#E2003B" stroke-width="0.2" fill="#E2003B" fill-rule="nonzero"></path>
                <path d="M58.965,14.587 C58.477,14.12 57.535,13.287 56.597,12.844 C55.824,12.479 55.381,12.109 55.243,11.714 C55.148,11.44 55.19,11.126 55.374,10.754 C55.513,10.472 55.644,10.239 55.764,10.024 C56.274,9.112 56.669,8.454 56.669,6.124 C56.669,2.635 54.656,2.459 54.257,2.459 C53.931,2.459 53.727,2.531 53.529,2.601 C53.313,2.678 53.089,2.757 52.579,2.766 C51.659,2.781 49.727,2.813 49.727,6.021 C49.727,8.266 50.311,9.297 50.771,10.125 C50.888,10.337 50.999,10.538 51.087,10.737 C51.477,11.624 51.193,12.244 50.189,12.687 C48.921,13.247 48.323,13.539 47.078,14.635 C45.6268653,13.1179511 44.8172715,11.0993401 44.818,9 C44.8179998,6.07685283 46.3774802,3.37575338 48.9089999,1.91417974 C51.4405195,0.452606103 54.5594805,0.452606103 57.0910001,1.91417974 C59.6225198,3.37575338 61.1820002,6.07685283 61.182,9 C61.1823361,11.0768761 60.3892811,13.075432 58.965,14.587 M53,17.182 C51.0437941,17.1835702 49.1524303,16.4806986 47.672,15.202 C48.775,14.237 49.302,13.972 50.519,13.435 C51.929,12.812 52.409,11.709 51.836,10.407 C51.7296904,10.1754762 51.612903,9.94890863 51.486,9.728 C51.051,8.944 50.546,8.054 50.546,6.021 C50.546,3.618 51.686,3.599 52.593,3.584 C53.236,3.573 53.551,3.462 53.803,3.373 C53.97,3.313 54.072,3.277 54.257,3.277 C55.015,3.277 55.851,4.025 55.851,6.124 C55.851,8.24 55.534,8.761 55.051,9.624 C54.924,9.85 54.786,10.096 54.641,10.391 C54.359,10.963 54.301,11.498 54.471,11.984 C54.687,12.604 55.252,13.114 56.247,13.584 C57.062,13.97 57.917,14.722 58.377,15.158 C56.890061,16.4634728 54.978698,17.1829443 53,17.182 M53,0 C48.0294373,0 44,4.02943725 44,9 C44,13.9705627 48.0294373,18 53,18 C57.9705627,18 62,13.9705627 62,9 C62,4.02943725 57.9705627,0 53,0" id="Shape" fill="#89909A" fill-rule="nonzero"></path>
                <path d="M58.965,37.587 C58.477,37.12 57.535,36.287 56.597,35.844 C55.824,35.479 55.381,35.109 55.243,34.714 C55.148,34.44 55.19,34.126 55.374,33.754 C55.513,33.472 55.644,33.239 55.764,33.024 C56.274,32.112 56.669,31.454 56.669,29.124 C56.669,25.635 54.656,25.459 54.257,25.459 C53.931,25.459 53.727,25.531 53.529,25.601 C53.313,25.678 53.089,25.757 52.579,25.766 C51.659,25.781 49.727,25.813 49.727,29.021 C49.727,31.266 50.311,32.297 50.771,33.125 C50.888,33.337 50.999,33.538 51.087,33.737 C51.477,34.624 51.193,35.244 50.189,35.687 C48.921,36.247 48.323,36.539 47.078,37.635 C45.6268653,36.1179511 44.8172715,34.0993401 44.818,32 C44.8179998,29.0768528 46.3774802,26.3757534 48.9089999,24.9141797 C51.4405195,23.4526061 54.5594805,23.4526061 57.0910001,24.9141797 C59.6225198,26.3757534 61.1820002,29.0768528 61.182,32 C61.1823361,34.0768761 60.3892811,36.075432 58.965,37.587 M53,40.182 C51.0437941,40.1835702 49.1524303,39.4806986 47.672,38.202 C48.775,37.237 49.302,36.972 50.519,36.435 C51.929,35.812 52.409,34.709 51.836,33.407 C51.7296904,33.1754762 51.612903,32.9489086 51.486,32.728 C51.051,31.944 50.546,31.054 50.546,29.021 C50.546,26.618 51.686,26.599 52.593,26.584 C53.236,26.573 53.551,26.462 53.803,26.373 C53.97,26.313 54.072,26.277 54.257,26.277 C55.015,26.277 55.851,27.025 55.851,29.124 C55.851,31.24 55.534,31.761 55.051,32.624 C54.924,32.85 54.786,33.096 54.641,33.391 C54.359,33.963 54.301,34.498 54.471,34.984 C54.687,35.604 55.252,36.114 56.247,36.584 C57.062,36.97 57.917,37.722 58.377,38.158 C56.890061,39.4634728 54.978698,40.1829443 53,40.182 M53,23 C48.0294373,23 44,27.0294373 44,32 C44,36.9705627 48.0294373,41 53,41 C57.9705627,41 62,36.9705627 62,32 C62,27.0294373 57.9705627,23 53,23" id="Shape" fill="#E2003B" fill-rule="nonzero"></path>
                <g id="icon-帮助" transform="translate(72.000000, 25.000000)">
                    <g id="Fill-1-Clipped">
                        <mask id="mask-2" fill="white">
                            <use xlink:href="#path-1"></use>
                        </mask>
                        <g id="path-1"></g>
                        <path d="M8.42017273,4.25164091 C8.24930909,4.11005 8.05012727,4.00059545 7.82867273,3.92677727 C7.60785455,3.85391364 7.36762727,3.81668636 7.11530909,3.81668636 C6.79076364,3.81668636 6.49771818,3.86727727 6.24380909,3.96655 C5.98862727,4.06709545 5.76844545,4.20900455 5.58930909,4.38877727 C5.40953636,4.56918636 5.27176364,4.79095909 5.18044545,5.04773182 C5.09008182,5.30195909 5.04426364,5.58705 5.04426364,5.89568636 L5.04426364,5.97395909 L5.75603636,5.97395909 L5.75380909,5.89377727 C5.74808182,5.68218636 5.77385455,5.48427727 5.82921818,5.30609545 C5.88458182,5.12982273 5.96794545,4.97423182 6.07803636,4.84345909 C6.18653636,4.71459545 6.32749091,4.61182273 6.49708182,4.53705 C6.66762727,4.46227727 6.86680909,4.42473182 7.0889,4.42473182 C7.24799091,4.42473182 7.40103636,4.45145909 7.5439,4.50491364 C7.68612727,4.55805 7.81244545,4.63155 7.91935455,4.72445909 C8.02467273,4.81609545 8.10962727,4.92936818 8.17230909,5.06077727 C8.23403636,5.19218636 8.26553636,5.33823182 8.26553636,5.49541364 C8.26553636,5.70159545 8.21462727,5.89123182 8.11408182,6.06018636 C8.01035455,6.23391364 7.87799091,6.39395909 7.72176364,6.53491364 C7.53403636,6.69973182 7.37208182,6.84991364 7.23971818,6.98100455 C7.10353636,7.11623182 6.99280909,7.25941364 6.91071818,7.40705 C6.82799091,7.55564091 6.76753636,7.72332273 6.73094545,7.90659545 C6.69467273,8.08764091 6.6794,8.31386818 6.68576364,8.57955 L6.68767273,8.65591364 L7.39371818,8.65591364 L7.39530909,8.57955 C7.40103636,8.32118636 7.41249091,8.12200455 7.42999091,7.98677727 C7.4459,7.85886818 7.47835455,7.74941364 7.52608182,7.66159545 C7.57476364,7.57282273 7.65049091,7.48055 7.75167273,7.38795909 C7.86049091,7.28836818 8.00558182,7.14995909 8.18599091,6.97527727 C8.41221818,6.76718636 8.60121818,6.54732273 8.74726364,6.32141364 C8.89871818,6.08818636 8.97508182,5.80214091 8.97508182,5.46995909 C8.97508182,5.20968636 8.92512727,4.97455 8.82680909,4.77186818 C8.72880909,4.56982273 8.59167273,4.39482273 8.42017273,4.25164091 L8.42017273,4.25164091 Z M6.59794545,10.1800045 L7.49171818,10.1800045 L7.49171818,9.12077727 L6.59794545,9.12077727 L6.59794545,10.1800045 Z M7.00012727,13.3637318 C3.48549091,13.3637318 0.636490909,10.5147318 0.636490909,7.00009545 C0.636490909,3.48545909 3.48549091,0.636459091 7.00012727,0.636459091 C10.5147636,0.636459091 13.3637636,3.48545909 13.3637636,7.00009545 C13.3637636,10.5147318 10.5147636,13.3637318 7.00012727,13.3637318 L7.00012727,13.3637318 Z M7.00012727,9.54545454e-05 C3.1339,9.54545454e-05 0.000127272727,3.13418636 0.000127272727,7.00009545 C0.000127272727,10.8660045 3.1339,14.0000955 7.00012727,14.0000955 C10.8660364,14.0000955 14.0001273,10.8660045 14.0001273,7.00009545 C14.0001273,3.13418636 10.8660364,9.54545454e-05 7.00012727,9.54545454e-05 L7.00012727,9.54545454e-05 Z" id="Fill-1" fill="#E2003B" fill-rule="nonzero" mask="url(#mask-2)"></path>
                    </g>
                </g>
                <g id="icon-帮助" transform="translate(72.000000, 2.000000)">
                    <g id="Fill-1-Clipped">
                        <mask id="mask-4" fill="white">
                            <use xlink:href="#path-3"></use>
                        </mask>
                        <g id="path-3"></g>
                        <path d="M8.42017273,4.25164091 C8.24930909,4.11005 8.05012727,4.00059545 7.82867273,3.92677727 C7.60785455,3.85391364 7.36762727,3.81668636 7.11530909,3.81668636 C6.79076364,3.81668636 6.49771818,3.86727727 6.24380909,3.96655 C5.98862727,4.06709545 5.76844545,4.20900455 5.58930909,4.38877727 C5.40953636,4.56918636 5.27176364,4.79095909 5.18044545,5.04773182 C5.09008182,5.30195909 5.04426364,5.58705 5.04426364,5.89568636 L5.04426364,5.97395909 L5.75603636,5.97395909 L5.75380909,5.89377727 C5.74808182,5.68218636 5.77385455,5.48427727 5.82921818,5.30609545 C5.88458182,5.12982273 5.96794545,4.97423182 6.07803636,4.84345909 C6.18653636,4.71459545 6.32749091,4.61182273 6.49708182,4.53705 C6.66762727,4.46227727 6.86680909,4.42473182 7.0889,4.42473182 C7.24799091,4.42473182 7.40103636,4.45145909 7.5439,4.50491364 C7.68612727,4.55805 7.81244545,4.63155 7.91935455,4.72445909 C8.02467273,4.81609545 8.10962727,4.92936818 8.17230909,5.06077727 C8.23403636,5.19218636 8.26553636,5.33823182 8.26553636,5.49541364 C8.26553636,5.70159545 8.21462727,5.89123182 8.11408182,6.06018636 C8.01035455,6.23391364 7.87799091,6.39395909 7.72176364,6.53491364 C7.53403636,6.69973182 7.37208182,6.84991364 7.23971818,6.98100455 C7.10353636,7.11623182 6.99280909,7.25941364 6.91071818,7.40705 C6.82799091,7.55564091 6.76753636,7.72332273 6.73094545,7.90659545 C6.69467273,8.08764091 6.6794,8.31386818 6.68576364,8.57955 L6.68767273,8.65591364 L7.39371818,8.65591364 L7.39530909,8.57955 C7.40103636,8.32118636 7.41249091,8.12200455 7.42999091,7.98677727 C7.4459,7.85886818 7.47835455,7.74941364 7.52608182,7.66159545 C7.57476364,7.57282273 7.65049091,7.48055 7.75167273,7.38795909 C7.86049091,7.28836818 8.00558182,7.14995909 8.18599091,6.97527727 C8.41221818,6.76718636 8.60121818,6.54732273 8.74726364,6.32141364 C8.89871818,6.08818636 8.97508182,5.80214091 8.97508182,5.46995909 C8.97508182,5.20968636 8.92512727,4.97455 8.82680909,4.77186818 C8.72880909,4.56982273 8.59167273,4.39482273 8.42017273,4.25164091 L8.42017273,4.25164091 Z M6.59794545,10.1800045 L7.49171818,10.1800045 L7.49171818,9.12077727 L6.59794545,9.12077727 L6.59794545,10.1800045 Z M7.00012727,13.3637318 C3.48549091,13.3637318 0.636490909,10.5147318 0.636490909,7.00009545 C0.636490909,3.48545909 3.48549091,0.636459091 7.00012727,0.636459091 C10.5147636,0.636459091 13.3637636,3.48545909 13.3637636,7.00009545 C13.3637636,10.5147318 10.5147636,13.3637318 7.00012727,13.3637318 L7.00012727,13.3637318 Z M7.00012727,9.54545454e-05 C3.1339,9.54545454e-05 0.000127272727,3.13418636 0.000127272727,7.00009545 C0.000127272727,10.8660045 3.1339,14.0000955 7.00012727,14.0000955 C10.8660364,14.0000955 14.0001273,10.8660045 14.0001273,7.00009545 C14.0001273,3.13418636 10.8660364,9.54545454e-05 7.00012727,9.54545454e-05 L7.00012727,9.54545454e-05 Z" id="Fill-1" fill="#89909A" fill-rule="nonzero" mask="url(#mask-4)"></path>
                    </g>
                </g>
                <path d="M111.456142,2.00001874 L96.5436975,2.00001874 C96.3991386,1.9988161 96.2601498,2.05554299 96.1579277,2.15746691 C96.0557055,2.25939084 95.9988126,2.39797404 96.0000188,2.54211123 L96.0000188,12.2688266 C95.9988126,12.4129638 96.0557055,12.551547 96.1579277,12.6534709 C96.2601498,12.7553948 96.3991386,12.8121217 96.5436975,12.8109191 L98.8145722,12.8109191 C98.9789256,12.812381 99.1349734,12.7390194 99.2384112,12.6116626 L102.268964,8.86439644 L103.652321,10.0044179 C103.87616,10.1877211 104.196,10.1637912 104.395999,9.95655804 L107.082553,7.06247336 C107.346552,7.22200617 107.650391,7.30958969 107.978071,7.30958969 C108.929748,7.30958969 109.713267,6.53617462 109.713267,5.57945637 C109.713267,4.62273812 108.937588,3.84932306 107.978071,3.84932306 C107.026553,3.84932306 106.242875,4.62273812 106.242875,5.57945637 C106.242875,5.81061942 106.290875,6.0259887 106.370874,6.23322181 L103.94,8.84844316 L102.532803,7.68449177 C102.420804,7.58877208 102.276964,7.54888889 102.132964,7.56484217 C101.988965,7.58079545 101.860965,7.65258522 101.765125,7.76409866 L98.5587328,11.7265746 L97.0795363,11.7265746 L97.0795363,3.07638659 L110.904624,3.07638659 L110.904624,11.7267341 L103.436321,11.7267341 C103.291762,11.7255315 103.152774,11.7822583 103.050551,11.8841823 C102.948329,11.9861062 102.891436,12.1246894 102.892643,12.2688266 L102.892643,14.9157949 L99.7182501,14.9157949 C99.5736911,14.9145923 99.4347024,14.9713192 99.3324802,15.0732431 C99.230258,15.175167 99.1733652,15.3137502 99.1745713,15.4578874 C99.1733652,15.6020246 99.230258,15.7406078 99.3324802,15.8425317 C99.4347024,15.9444557 99.5736911,16.0011825 99.7182501,15.9999799 L107.002553,15.9999799 C107.14714,16.0012256 107.28617,15.9445177 107.388427,15.842589 C107.490684,15.7406604 107.547598,15.6020525 107.546392,15.4578874 C107.547598,15.3137223 107.490684,15.1751145 107.388427,15.0731858 C107.28617,14.9712572 107.14714,14.9145493 107.002553,14.9157949 L103.98816,14.9157949 L103.98816,12.8109191 L111.456302,12.8109191 C111.600861,12.8121217 111.73985,12.7553948 111.842072,12.6534709 C111.944294,12.551547 112.001187,12.4129638 111.999981,12.2688266 L111.999981,2.54211123 C111.991981,2.23915842 111.752142,2.00001874 111.456142,2.00001874 M107.986071,4.92600998 C108.34591,4.92600998 108.633749,5.21300951 108.633749,5.57179879 C108.633749,5.93058807 108.34591,6.2175876 107.986071,6.2175876 C107.814074,6.21831239 107.648912,6.15050689 107.52729,6.02924052 C107.405669,5.90797416 107.337665,5.74329379 107.338392,5.57179879 C107.330392,5.22098614 107.626231,4.92600998 107.986071,4.92600998" id="Shape" fill="#89909A" fill-rule="nonzero"></path>
                <path d="M111.456142,25.0000187 L96.5436975,25.0000187 C96.3991386,24.9988161 96.2601498,25.055543 96.1579277,25.1574669 C96.0557055,25.2593908 95.9988126,25.397974 96.0000188,25.5421112 L96.0000188,35.2688266 C95.9988126,35.4129638 96.0557055,35.551547 96.1579277,35.6534709 C96.2601498,35.7553948 96.3991386,35.8121217 96.5436975,35.8109191 L98.8145722,35.8109191 C98.9789256,35.812381 99.1349734,35.7390194 99.2384112,35.6116626 L102.268964,31.8643964 L103.652321,33.0044179 C103.87616,33.1877211 104.196,33.1637912 104.395999,32.956558 L107.082553,30.0624734 C107.346552,30.2220062 107.650391,30.3095897 107.978071,30.3095897 C108.929748,30.3095897 109.713267,29.5361746 109.713267,28.5794564 C109.713267,27.6227381 108.937588,26.8493231 107.978071,26.8493231 C107.026553,26.8493231 106.242875,27.6227381 106.242875,28.5794564 C106.242875,28.8106194 106.290875,29.0259887 106.370874,29.2332218 L103.94,31.8484432 L102.532803,30.6844918 C102.420804,30.5887721 102.276964,30.5488889 102.132964,30.5648422 C101.988965,30.5807955 101.860965,30.6525852 101.765125,30.7640987 L98.5587328,34.7265746 L97.0795363,34.7265746 L97.0795363,26.0763866 L110.904624,26.0763866 L110.904624,34.7267341 L103.436321,34.7267341 C103.291762,34.7255315 103.152774,34.7822583 103.050551,34.8841823 C102.948329,34.9861062 102.891436,35.1246894 102.892643,35.2688266 L102.892643,37.9157949 L99.7182501,37.9157949 C99.5736911,37.9145923 99.4347024,37.9713192 99.3324802,38.0732431 C99.230258,38.175167 99.1733652,38.3137502 99.1745713,38.4578874 C99.1733652,38.6020246 99.230258,38.7406078 99.3324802,38.8425317 C99.4347024,38.9444557 99.5736911,39.0011825 99.7182501,38.9999799 L107.002553,38.9999799 C107.14714,39.0012256 107.28617,38.9445177 107.388427,38.842589 C107.490684,38.7406604 107.547598,38.6020525 107.546392,38.4578874 C107.547598,38.3137223 107.490684,38.1751145 107.388427,38.0731858 C107.28617,37.9712572 107.14714,37.9145493 107.002553,37.9157949 L103.98816,37.9157949 L103.98816,35.8109191 L111.456302,35.8109191 C111.600861,35.8121217 111.73985,35.7553948 111.842072,35.6534709 C111.944294,35.551547 112.001187,35.4129638 111.999981,35.2688266 L111.999981,25.5421112 C111.991981,25.2391584 111.752142,25.0000187 111.456142,25.0000187 M107.986071,27.92601 C108.34591,27.92601 108.633749,28.2130095 108.633749,28.5717988 C108.633749,28.9305881 108.34591,29.2175876 107.986071,29.2175876 C107.814074,29.2183124 107.648912,29.1505069 107.52729,29.0292405 C107.405669,28.9079742 107.337665,28.7432938 107.338392,28.5717988 C107.330392,28.2209861 107.626231,27.92601 107.986071,27.92601" id="Shape" fill="#E2003B" fill-rule="nonzero"></path>
            </g>
        </g>
    </g>
</svg>