<?xml version="1.0" encoding="UTF-8"?>
<svg width="140px" height="34px" viewBox="0 0 140 34" version="1.1" xmlns="http://www.w3.org/2000/svg" xmlns:xlink="http://www.w3.org/1999/xlink">
    <!-- Generator: Sketch 44.1 (41455) - http://www.bohemiancoding.com/sketch -->
    <title>Artboard 2</title>
    <desc>Created with Sketch.</desc>
    <defs></defs>
    <g id="Page-1" stroke="none" stroke-width="1" fill="none" fill-rule="evenodd">
        <g id="Artboard-2">
            <g id="Group">
                <g id="nav-icons">
                    <g id="icon_CMDB" transform="translate(0.000000, 6.000000)" stroke="#FFFFFF" stroke-width="0.2" fill="#FFFFFF" fill-rule="nonzero">
                        <path d="M16.7163454,8.2879336 L12.8907765,6.33399599 C12.8848919,6.33099373 12.8787558,6.3282897 12.8726583,6.32554591 L12.8726583,2.4556265 C12.8726583,2.27632568 12.7592067,2.08823676 12.6028987,2.00836856 L8.7773492,0.0543911946 C8.63544279,-0.0181005705 8.4293872,-0.0181602198 8.28742272,0.0543911946 L4.46187321,2.00836856 C4.30556518,2.08823676 4.19211363,2.27632568 4.19211363,2.4556265 L4.19211363,6.29804835 C4.15785168,6.30687621 4.12511893,6.31870632 4.0953091,6.33391646 L0.269875734,8.2879336 C0.113509642,8.3676825 0,8.5557913 0,8.73521142 L0,12.6069998 C0,12.7864199 0.113509642,12.9745287 0.269759589,13.0542776 L4.0953091,15.0082351 C4.16627198,15.0445207 4.25328183,15.0626735 4.3402917,15.0626735 C4.42726285,15.0626735 4.5142727,15.0445207 4.58523557,15.0082947 L8.4106883,13.0542776 C8.44006325,13.0391701 8.46768602,13.0207085 8.4930331,12.9992427 C8.51837622,13.0206946 8.54598459,13.0391552 8.5753392,13.0542776 L12.4008887,15.0082351 C12.4718516,15.0445207 12.5588421,15.0626139 12.6458326,15.0626139 C12.7328037,15.0626139 12.8198136,15.0445207 12.8907765,15.0082947 L16.7162486,13.0542776 C16.8726147,12.9745287 16.9861243,12.7864199 16.9861243,12.6069998 L16.9861243,8.73521142 C16.9861049,8.55581117 16.8726147,8.36770238 16.7163454,8.2879336 L16.7163454,8.2879336 Z M16.4140466,8.65375262 L12.6893278,10.5562938 C12.6705902,10.5645451 12.6209975,10.5645451 12.6028987,10.5565125 L8.90086642,8.66562249 L12.6027826,6.77471258 C12.6195181,6.76606091 12.6356721,6.75627013 12.6511364,6.74540569 C12.6662349,6.74576359 12.6806559,6.74763253 12.6887278,6.75121141 L16.4140466,8.65375262 Z M12.4190069,2.83415047 L12.4192005,6.32329919 C12.4190843,6.32401496 12.4188133,6.32486991 12.4186004,6.32566521 C12.4126385,6.32836924 12.4066184,6.33099373 12.4008694,6.33393636 L8.70249556,8.22303695 L8.70249556,4.8798659 C8.70249556,4.83011977 8.6924299,4.77967774 8.67460208,4.73162162 C8.71103201,4.72267447 8.74581661,4.71034729 8.7773492,4.69426232 L12.4190069,2.83415047 L12.4190069,2.83415047 Z M8.48887136,0.471924716 C8.50758961,0.463653583 8.55720168,0.463593934 8.57531985,0.471646366 L12.3006387,2.37418758 L8.57590056,4.2767288 C8.55720166,4.2849204 8.50758959,4.2850397 8.48945207,4.2769475 L4.7643849,2.374287 L8.48887136,0.471924716 L8.48887136,0.471924716 Z M4.29675773,6.75144998 C4.31547598,6.74325838 4.36508806,6.74319873 4.38320623,6.75123128 L8.10848633,8.65375262 L4.38378695,10.5562938 C4.36506871,10.5645451 4.31545663,10.5645451 4.29733844,10.5565125 L0.572329347,8.6538719 L4.29675773,6.75144998 L4.29675773,6.75144998 Z M8.20875575,12.6369827 L4.51038193,14.5261032 L4.51038193,11.1594906 C4.51038193,11.1097246 4.50031628,11.0592627 4.4824691,11.0111867 C4.5189184,11.0022395 4.55370298,10.9899123 4.58521622,10.9738274 L8.22687392,9.11377514 L8.22706749,12.6028642 C8.22542215,12.6130441 8.21342078,12.6329465 8.20875575,12.6369827 Z M16.514316,12.6369827 L12.8159422,14.5260833 L12.8159422,11.1594906 C12.8159422,11.1097246 12.8058765,11.0592428 12.7880294,11.0111469 C12.8244593,11.0021997 12.8592439,10.9899123 12.8907571,10.9738075 L16.5324342,9.11375527 L16.5326278,12.6028443 C16.5310018,12.6130441 16.518981,12.6329465 16.514316,12.6369827 L16.514316,12.6369827 Z" id="Shape"></path>
                    </g>
                    <g id="icon_基础设施" transform="translate(34.000000, 0.000000)" fill="#89909A">
                        <g id="Group-9">
                            <path d="M0,10.5852669 L11.5185547,10.5852669 L11.5185547,7.5117714 L0,7.5117714 L0,10.5852669 Z M0.71991125,9.97056776 L10.7986434,9.97056776 L10.7986434,8.12648219 L0.71991125,8.12648219 L0.71991125,9.97056776 Z" id="Fill-1"></path>
                            <path d="M0,6.66608177 L11.5185547,6.66608177 L11.5185547,3.59258632 L0,3.59258632 L0,6.66608177 Z M0.71991125,6.05138268 L10.7986434,6.05138268 L10.7986434,4.20728541 L0.71991125,4.20728541 L0.71991125,6.05138268 Z" id="Fill-2"></path>
                            <polygon id="Fill-3" points="8.73363638 5.51368044 9.45354763 5.51368044 9.45354763 4.89898135 8.73363638 4.89898135"></polygon>
                            <polygon id="Fill-4" points="8.73363638 1.92109412 9.45354763 1.92109412 9.45354763 1.30639503 8.73363638 1.30639503"></polygon>
                            <polygon id="Fill-5" points="8.73363638 9.10626676 9.45354763 9.10626676 9.45354763 8.49156767 8.73363638 8.49156767"></polygon>
                            <path d="M0,3.07349545 L11.5185547,3.07349545 L11.5185547,0 L0,0 L0,3.07349545 Z M0.71991125,2.45878466 L10.7986434,2.45878466 L10.7986434,0.614687387 L0.71991125,0.614687387 L0.71991125,2.45878466 Z" id="Fill-6"></path>
                        </g>
                    </g>
                    <g id="icon_基础设施-copy" transform="translate(34.000000, 21.000000)" fill="#FFFFFF">
                        <g id="icon_基础设施">
                            <g id="Group-9">
                                <path d="M0,10.5852669 L11.5185547,10.5852669 L11.5185547,7.5117714 L0,7.5117714 L0,10.5852669 Z M0.71991125,9.97056776 L10.7986434,9.97056776 L10.7986434,8.12648219 L0.71991125,8.12648219 L0.71991125,9.97056776 Z" id="Fill-1"></path>
                                <path d="M0,6.66608177 L11.5185547,6.66608177 L11.5185547,3.59258632 L0,3.59258632 L0,6.66608177 Z M0.71991125,6.05138268 L10.7986434,6.05138268 L10.7986434,4.20728541 L0.71991125,4.20728541 L0.71991125,6.05138268 Z" id="Fill-2"></path>
                                <polygon id="Fill-3" points="8.73363638 5.51368044 9.45354763 5.51368044 9.45354763 4.89898135 8.73363638 4.89898135"></polygon>
                                <polygon id="Fill-4" points="8.73363638 1.92109412 9.45354763 1.92109412 9.45354763 1.30639503 8.73363638 1.30639503"></polygon>
                                <polygon id="Fill-5" points="8.73363638 9.10626676 9.45354763 9.10626676 9.45354763 8.49156767 8.73363638 8.49156767"></polygon>
                                <path d="M0,3.07349545 L11.5185547,3.07349545 L11.5185547,0 L0,0 L0,3.07349545 Z M0.71991125,2.45878466 L10.7986434,2.45878466 L10.7986434,0.614687387 L0.71991125,0.614687387 L0.71991125,2.45878466 Z" id="Fill-6"></path>
                            </g>
                        </g>
                    </g>
                    <g id="icon_服务中间件" transform="translate(63.000000, 0.000000)" fill-rule="nonzero" fill="#89909A">
                        <polygon id="Shape" points="2.21039817 5.30572205 2.21039817 5.30572205 2.21039817 5.30572205 2.43784958 5.30572205"></polygon>
                        <path d="M13.6595149,5.36811078 L7.88574828,5.36811078 C7.72172082,5.36811078 7.55769336,5.52408258 7.55769336,5.68005438 L7.55769336,9.04904532 C7.55769336,9.23621148 7.72172082,9.36098892 7.88574828,9.36098892 L13.6595149,9.36098892 C13.8235423,9.36098892 13.9875698,9.23621148 13.9875698,9.04904532 L13.9875698,5.68005438 C13.9875698,5.49288822 13.8235423,5.36811078 13.6595149,5.36811078 Z M13.3642654,8.39396375 C13.3642654,8.61232427 13.200238,8.76829607 12.9705995,8.76829607 L8.57466362,8.76829607 C8.34502517,8.76829607 8.18099771,8.61232427 8.18099771,8.39396375 L8.18099771,6.33513595 C8.18099771,6.11677543 8.34502517,5.96080363 8.57466362,5.96080363 L12.9377941,5.96080363 C13.1674325,5.96080363 13.33146,6.11677543 13.33146,6.33513595 L13.33146,8.39396375 L13.3642654,8.39396375 Z" id="Shape"></path>
                        <polygon id="Shape" points="9.42760641 9.70412689 12.1176568 9.70412689 12.1176568 10.1624602 9.42760641 10.1624602"></polygon>
                        <path d="M6.08144622,0.00268076536 L0.340485126,0.00268076536 C0.143652174,0.00268076536 0.0124302059,0.158652568 0.0124302059,0.314624371 L0.0124302059,3.68361531 C0.0124302059,3.87078147 0.143652174,3.99555891 0.340485126,3.99555891 L6.11425172,3.99555891 C6.31108467,3.99555891 6.44230664,3.87078147 6.44230664,3.68361531 L6.44230664,0.314624371 C6.40950114,0.127458207 6.27827918,0.00268076536 6.08144622,0.00268076536 Z M5.7861968,3.02853374 C5.7861968,3.24689426 5.62216934,3.40286606 5.39253089,3.40286606 L1.02940046,3.40286606 C0.799762014,3.40286606 0.635734554,3.24689426 0.635734554,3.02853374 L0.635734554,0.969705942 C0.635734554,0.751345418 0.799762014,0.595373615 1.02940046,0.595373615 L5.39253089,0.595373615 C5.62216934,0.595373615 5.7861968,0.751345418 5.7861968,0.969705942 L5.7861968,3.02853374 Z" id="Shape"></path>
                        <polygon id="Shape" points="1.88234325 4.33869688 4.57239359 4.33869688 4.57239359 4.79703021 1.88234325 4.79703021 1.88234325 4.33869688"></polygon>
                        <polygon id="Shape" points="10.4445767 2.06150856 10.9112433 2.06150856 10.9112433 5.46169386 10.4445767 5.46169386 10.4445767 2.06150856"></polygon>
                        <path d="M10.8382426,0.314624371 C10.2477437,0.314624371 9.78846682,0.782539778 9.78846682,1.31284391 C9.78846682,1.84314804 10.2805492,2.31106344 10.8382426,2.31106344 C11.4287414,2.31106344 11.8880183,1.84314804 11.8880183,1.31284391 C11.8880183,0.782539778 11.4287414,0.314624371 10.8382426,0.314624371 Z M10.8382426,1.90553676 C10.5101876,1.90553676 10.2149382,1.65598187 10.2149382,1.31284391 C10.2149382,0.969705942 10.4773822,0.720151057 10.8382426,0.720151057 C11.199103,0.720151057 11.4615469,0.969705942 11.4615469,1.31284391 C11.4615469,1.65598187 11.199103,1.90553676 10.8382426,1.90553676 Z" id="Shape"></path>
                        <polygon id="Shape" points="3.98189474 7.70768781 7.55769336 7.70768781 7.55769336 8.16602115 3.98189474 8.16602115 3.98189474 7.70768781"></polygon>
                        <polygon id="Shape" points="6.40950114 1.1568721 9.98529977 1.1568721 9.98529977 1.61520544 6.40950114 1.61520544 6.40950114 1.1568721"></polygon>
                        <polygon id="Shape" points="3.12895195 4.7130292 3.59561861 4.7130292 3.59561861 7.30216113 3.12895195 7.30216113"></polygon>
                        <path d="M3.12895195,7.02141188 C2.53845309,7.02141188 2.0791762,7.48932729 2.0791762,8.01963142 C2.0791762,8.54993555 2.57125858,9.01785096 3.12895195,9.01785096 C3.68664531,9.01785096 4.17872769,8.54993555 4.17872769,8.01963142 C4.17872769,7.48932729 3.7194508,7.02141188 3.12895195,7.02141188 Z M3.12895195,8.61232427 C2.80089703,8.61232427 2.5056476,8.36276939 2.5056476,8.01963142 C2.5056476,7.67649345 2.76809153,7.42693857 3.12895195,7.42693857 C3.48981236,7.42693857 3.75225629,7.67649345 3.75225629,8.01963142 C3.75225629,8.36276939 3.45700686,8.61232427 3.12895195,8.61232427 Z" id="Shape"></path>
                    </g>
                    <path d="M95.3636364,2.57142857 L104.636364,2.57142857 C104.787182,2.57142857 104.909091,2.45435714 104.909091,2.30952381 C104.909091,2.16495238 104.787182,2.04761905 104.636364,2.04761905 L95.3636364,2.04761905 C95.2128182,2.04761905 95.0909091,2.16495238 95.0909091,2.30952381 C95.0909091,2.45435714 95.2128182,2.57142857 95.3636364,2.57142857 L95.3636364,2.57142857 Z M94.5454545,9.9047619 L105.454545,9.9047619 L105.454545,3.61904762 L94.5454545,3.61904762 L94.5454545,9.9047619 Z M105.454545,3.0952381 L94.5454545,3.0952381 C94.2440909,3.0952381 94,3.32990476 94,3.61904762 L94,9.9047619 C94,10.1939048 94.2440909,10.4285714 94.5454545,10.4285714 L105.454545,10.4285714 C105.755636,10.4285714 106,10.1939048 106,9.9047619 L106,3.61904762 C106,3.32990476 105.755636,3.0952381 105.454545,3.0952381 L105.454545,3.0952381 Z M96.4545455,1.52380952 L103.545455,1.52380952 C103.696273,1.52380952 103.818182,1.4067381 103.818182,1.26190476 C103.818182,1.11733333 103.696273,1 103.545455,1 L96.4545455,1 C96.3037273,1 96.1818182,1.11733333 96.1818182,1.26190476 C96.1818182,1.4067381 96.3037273,1.52380952 96.4545455,1.52380952 L96.4545455,1.52380952 Z" id="icon_业务应用" fill="#89909A"></path>
                    <path d="M95.3636364,23.5714286 L104.636364,23.5714286 C104.787182,23.5714286 104.909091,23.4543571 104.909091,23.3095238 C104.909091,23.1649524 104.787182,23.047619 104.636364,23.047619 L95.3636364,23.047619 C95.2128182,23.047619 95.0909091,23.1649524 95.0909091,23.3095238 C95.0909091,23.4543571 95.2128182,23.5714286 95.3636364,23.5714286 L95.3636364,23.5714286 Z M94.5454545,30.9047619 L105.454545,30.9047619 L105.454545,24.6190476 L94.5454545,24.6190476 L94.5454545,30.9047619 Z M105.454545,24.0952381 L94.5454545,24.0952381 C94.2440909,24.0952381 94,24.3299048 94,24.6190476 L94,30.9047619 C94,31.1939048 94.2440909,31.4285714 94.5454545,31.4285714 L105.454545,31.4285714 C105.755636,31.4285714 106,31.1939048 106,30.9047619 L106,24.6190476 C106,24.3299048 105.755636,24.0952381 105.454545,24.0952381 L105.454545,24.0952381 Z M96.4545455,22.5238095 L103.545455,22.5238095 C103.696273,22.5238095 103.818182,22.4067381 103.818182,22.2619048 C103.818182,22.1173333 103.696273,22 103.545455,22 L96.4545455,22 C96.3037273,22 96.1818182,22.1173333 96.1818182,22.2619048 C96.1818182,22.4067381 96.3037273,22.5238095 96.4545455,22.5238095 L96.4545455,22.5238095 Z" id="icon_业务应用-copy" fill="#FFFFFF"></path>
                    <g id="CI管理" transform="translate(127.000000, 21.000000)" fill-rule="nonzero" fill="#FFFFFF">
                        <path d="M7.15870956,10.5902439 L1.63753128,10.5902439 C1.38656863,10.5902439 1.19834664,10.4 1.19834664,10.1463415 L1.19834664,2.34634146 C1.19834664,2.09268292 1.38656863,1.90243902 1.63753128,1.90243903 L9.16641074,1.90243903 C9.4173734,1.90243903 9.60559538,2.09268293 9.60559538,2.34634146 L9.60559538,6.02439024 L9.10367008,6.02439024 L9.10367008,2.4097561 L1.70027195,2.4097561 L1.70027195,10.0829268 L7.15870956,10.0829268 L7.15870956,10.5902439 Z" id="Shape"></path>
                        <path d="M0.382718041,8.68780487 C0.194496052,8.68780487 0.00627406377,8.49756097 0.00627406377,8.18048781 L0.00627406377,0.507317078 C0.00627406377,0.253658539 0.194496052,0 0.382718041,0 L7.97433816,0 L7.97433816,0.507317078 L0.445458703,0.507317078 L0.445458703,8.18048781 C0.445458703,8.24390244 0.445458703,8.18048781 0.382718041,8.18048781 L0.382718041,8.68780487 L0.382718041,8.68780487 Z" id="Shape"></path>
                        <path d="M9.91929869,13 L9.29189207,13 C9.10367008,13 8.91544809,12.8097561 8.91544809,12.6195122 L8.91544809,12.1756098 C8.66448544,12.1121951 8.41352279,12.0487805 8.16256015,11.9219512 L7.84885684,12.2390244 C7.72337551,12.3658537 7.47241286,12.3658537 7.34693154,12.2390244 L6.90774691,11.7317073 C6.78226558,11.604878 6.78226558,11.3512195 6.90774691,11.2243902 L7.0959689,10.9707317 C6.90774691,10.7170732 6.78226558,10.4 6.65678426,10.0829268 L6.40582161,10.0829268 C6.21759962,10.0829268 6.02937763,9.89268292 6.02937764,9.70243903 L6.02937764,9.00487805 C6.02937764,8.81463414 6.21759963,8.62439024 6.40582161,8.62439024 L6.65678426,8.62439024 C6.71952492,8.30731707 6.90774691,7.92682927 7.0959689,7.67317073 L6.84500625,7.41951219 C6.71952492,7.29268292 6.71952492,7.03902438 6.84500625,6.91219513 L7.28419089,6.40487805 C7.34693155,6.34146341 7.47241287,6.27804878 7.53515352,6.27804878 C7.66063485,6.27804878 7.72337551,6.34146341 7.78611618,6.40487805 L8.03707883,6.72195122 C8.28804148,6.59512195 8.60174479,6.46829268 8.85270743,6.40487805 L8.85270743,5.89756097 C8.85270743,5.70731707 9.04092942,5.51707316 9.22915141,5.51707317 L9.85655804,5.51707317 C10.1075207,5.51707317 10.2957427,5.70731708 10.2957427,5.89756097 L10.2957427,6.40487805 C10.5467053,6.46829268 10.8604086,6.59512195 11.0486306,6.72195122 L11.2995933,6.46829268 C11.4250746,6.34146341 11.6760372,6.34146341 11.8015186,6.46829268 L12.2407032,6.97560976 C12.3661845,7.10243903 12.3661845,7.35609757 12.2407032,7.48292683 L11.9897405,7.73658537 C12.1779625,7.9902439 12.3034439,8.30731708 12.3661845,8.62439024 L12.6171472,8.62439024 C12.8053691,8.62439024 12.9935911,8.81463414 12.9935911,9.00487805 L12.9935911,9.70243903 C12.9935911,9.89268293 12.8053691,10.0829268 12.6171472,10.0829268 L12.3661845,10.0829268 C12.3034439,10.4 12.1779625,10.6536585 11.9897405,10.9073171 L12.2407032,11.1609756 C12.3661845,11.2878049 12.3661845,11.5414634 12.2407032,11.6682927 L11.8015186,12.1756098 C11.7387779,12.1756098 11.6132966,12.2390244 11.5505559,12.2390244 C11.4250746,12.2390244 11.3623339,12.1756098 11.2995933,12.1121951 L11.0486306,11.795122 C10.797668,11.9219512 10.609446,11.9853659 10.3584833,12.0487805 L10.3584833,12.5560976 C10.2957427,12.8097561 10.1075207,13 9.91929869,13 L9.91929869,13 Z M9.35463273,12.4926829 L9.79381737,12.4926829 L9.79381737,11.7317073 L9.98203935,11.6682927 C10.2957427,11.604878 10.609446,11.4780488 10.8604086,11.2878049 L11.0486306,11.1609756 L11.4878152,11.6682927 L11.8015186,11.3512195 L11.3623339,10.9073171 L11.4878152,10.7170732 C11.7387779,10.4 11.8642592,10.0829268 11.9269999,9.70243903 L11.9897405,9.51219513 L12.5544065,9.51219513 L12.5544065,9.06829268 L12.0524812,9.06829268 L12.0524812,8.87804878 C11.9897405,8.49756097 11.8642592,8.11707317 11.6132966,7.86341463 L11.4878152,7.67317073 L11.9269999,7.22926829 L11.6132966,6.91219513 L11.1741119,7.41951219 L10.98589,7.29268292 C10.6721866,7.10243902 10.3584833,6.97560975 10.04478,6.91219513 L9.85655804,6.84878049 L9.85655804,6.02439024 L9.4173734,6.02439024 L9.4173734,6.78536586 L9.22915141,6.78536586 C8.85270743,6.84878049 8.53900413,6.97560976 8.22530082,7.16585365 L8.03707883,7.29268292 L7.59789419,6.78536586 L7.28419089,7.10243903 L7.72337551,7.54634146 L7.59789419,7.73658537 C7.34693154,8.05365854 7.15870955,8.43414633 7.0959689,8.87804878 L7.03322823,9.06829268 L6.46856227,9.06829268 L6.46856227,9.57560976 L7.03322823,9.57560976 L7.0959689,9.76585365 C7.15870956,10.1463415 7.34693155,10.5268293 7.59789419,10.8439024 L7.72337551,11.0341463 L7.28419089,11.4780488 L7.59789419,11.795122 L8.09981949,11.2878049 L8.28804148,11.4146341 C8.60174479,11.604878 8.91544811,11.6682927 9.22915141,11.7317073 L9.4173734,11.7317073 L9.4173734,12.4926829 L9.35463273,12.4926829 Z" id="Shape"></path>
                        <path d="M9.48011406,11.2878049 C8.4135228,11.2878049 7.59789419,10.4 7.59789419,9.25853659 C7.59789419,8.11707317 8.47626345,7.2292683 9.48011406,7.22926829 C10.4839647,7.22926827 11.3623339,8.11707316 11.3623339,9.25853659 C11.3623339,10.4 10.5467053,11.2878049 9.48011406,11.2878049 Z M9.48011406,7.8 C8.72722612,7.8 8.03707883,8.49756097 8.03707883,9.32195122 C8.03707883,10.1463415 8.66448546,10.8439024 9.48011406,10.8439024 C10.2957427,10.8439024 10.9231493,10.1463415 10.9231493,9.32195122 C10.9231493,8.49756097 10.2957427,7.8 9.48011406,7.8 Z" id="Shape"></path>
                    </g>
                    <g id="CI管理-Copy" transform="translate(127.000000, 1.000000)" fill-rule="nonzero" fill="#89909A">
                        <path d="M7.15870956,10.5902439 L1.63753128,10.5902439 C1.38656863,10.5902439 1.19834664,10.4 1.19834664,10.1463415 L1.19834664,2.34634146 C1.19834664,2.09268292 1.38656863,1.90243902 1.63753128,1.90243903 L9.16641074,1.90243903 C9.4173734,1.90243903 9.60559538,2.09268293 9.60559538,2.34634146 L9.60559538,6.02439024 L9.10367008,6.02439024 L9.10367008,2.4097561 L1.70027195,2.4097561 L1.70027195,10.0829268 L7.15870956,10.0829268 L7.15870956,10.5902439 Z" id="Shape"></path>
                        <path d="M0.382718041,8.68780487 C0.194496052,8.68780487 0.00627406377,8.49756097 0.00627406377,8.18048781 L0.00627406377,0.507317078 C0.00627406377,0.253658539 0.194496052,0 0.382718041,0 L7.97433816,0 L7.97433816,0.507317078 L0.445458703,0.507317078 L0.445458703,8.18048781 C0.445458703,8.24390244 0.445458703,8.18048781 0.382718041,8.18048781 L0.382718041,8.68780487 L0.382718041,8.68780487 Z" id="Shape"></path>
                        <path d="M9.91929869,13 L9.29189207,13 C9.10367008,13 8.91544809,12.8097561 8.91544809,12.6195122 L8.91544809,12.1756098 C8.66448544,12.1121951 8.41352279,12.0487805 8.16256015,11.9219512 L7.84885684,12.2390244 C7.72337551,12.3658537 7.47241286,12.3658537 7.34693154,12.2390244 L6.90774691,11.7317073 C6.78226558,11.604878 6.78226558,11.3512195 6.90774691,11.2243902 L7.0959689,10.9707317 C6.90774691,10.7170732 6.78226558,10.4 6.65678426,10.0829268 L6.40582161,10.0829268 C6.21759962,10.0829268 6.02937763,9.89268292 6.02937764,9.70243903 L6.02937764,9.00487805 C6.02937764,8.81463414 6.21759963,8.62439024 6.40582161,8.62439024 L6.65678426,8.62439024 C6.71952492,8.30731707 6.90774691,7.92682927 7.0959689,7.67317073 L6.84500625,7.41951219 C6.71952492,7.29268292 6.71952492,7.03902438 6.84500625,6.91219513 L7.28419089,6.40487805 C7.34693155,6.34146341 7.47241287,6.27804878 7.53515352,6.27804878 C7.66063485,6.27804878 7.72337551,6.34146341 7.78611618,6.40487805 L8.03707883,6.72195122 C8.28804148,6.59512195 8.60174479,6.46829268 8.85270743,6.40487805 L8.85270743,5.89756097 C8.85270743,5.70731707 9.04092942,5.51707316 9.22915141,5.51707317 L9.85655804,5.51707317 C10.1075207,5.51707317 10.2957427,5.70731708 10.2957427,5.89756097 L10.2957427,6.40487805 C10.5467053,6.46829268 10.8604086,6.59512195 11.0486306,6.72195122 L11.2995933,6.46829268 C11.4250746,6.34146341 11.6760372,6.34146341 11.8015186,6.46829268 L12.2407032,6.97560976 C12.3661845,7.10243903 12.3661845,7.35609757 12.2407032,7.48292683 L11.9897405,7.73658537 C12.1779625,7.9902439 12.3034439,8.30731708 12.3661845,8.62439024 L12.6171472,8.62439024 C12.8053691,8.62439024 12.9935911,8.81463414 12.9935911,9.00487805 L12.9935911,9.70243903 C12.9935911,9.89268293 12.8053691,10.0829268 12.6171472,10.0829268 L12.3661845,10.0829268 C12.3034439,10.4 12.1779625,10.6536585 11.9897405,10.9073171 L12.2407032,11.1609756 C12.3661845,11.2878049 12.3661845,11.5414634 12.2407032,11.6682927 L11.8015186,12.1756098 C11.7387779,12.1756098 11.6132966,12.2390244 11.5505559,12.2390244 C11.4250746,12.2390244 11.3623339,12.1756098 11.2995933,12.1121951 L11.0486306,11.795122 C10.797668,11.9219512 10.609446,11.9853659 10.3584833,12.0487805 L10.3584833,12.5560976 C10.2957427,12.8097561 10.1075207,13 9.91929869,13 L9.91929869,13 Z M9.35463273,12.4926829 L9.79381737,12.4926829 L9.79381737,11.7317073 L9.98203935,11.6682927 C10.2957427,11.604878 10.609446,11.4780488 10.8604086,11.2878049 L11.0486306,11.1609756 L11.4878152,11.6682927 L11.8015186,11.3512195 L11.3623339,10.9073171 L11.4878152,10.7170732 C11.7387779,10.4 11.8642592,10.0829268 11.9269999,9.70243903 L11.9897405,9.51219513 L12.5544065,9.51219513 L12.5544065,9.06829268 L12.0524812,9.06829268 L12.0524812,8.87804878 C11.9897405,8.49756097 11.8642592,8.11707317 11.6132966,7.86341463 L11.4878152,7.67317073 L11.9269999,7.22926829 L11.6132966,6.91219513 L11.1741119,7.41951219 L10.98589,7.29268292 C10.6721866,7.10243902 10.3584833,6.97560975 10.04478,6.91219513 L9.85655804,6.84878049 L9.85655804,6.02439024 L9.4173734,6.02439024 L9.4173734,6.78536586 L9.22915141,6.78536586 C8.85270743,6.84878049 8.53900413,6.97560976 8.22530082,7.16585365 L8.03707883,7.29268292 L7.59789419,6.78536586 L7.28419089,7.10243903 L7.72337551,7.54634146 L7.59789419,7.73658537 C7.34693154,8.05365854 7.15870955,8.43414633 7.0959689,8.87804878 L7.03322823,9.06829268 L6.46856227,9.06829268 L6.46856227,9.57560976 L7.03322823,9.57560976 L7.0959689,9.76585365 C7.15870956,10.1463415 7.34693155,10.5268293 7.59789419,10.8439024 L7.72337551,11.0341463 L7.28419089,11.4780488 L7.59789419,11.795122 L8.09981949,11.2878049 L8.28804148,11.4146341 C8.60174479,11.604878 8.91544811,11.6682927 9.22915141,11.7317073 L9.4173734,11.7317073 L9.4173734,12.4926829 L9.35463273,12.4926829 Z" id="Shape"></path>
                        <path d="M9.48011406,11.2878049 C8.4135228,11.2878049 7.59789419,10.4 7.59789419,9.25853659 C7.59789419,8.11707317 8.47626345,7.2292683 9.48011406,7.22926829 C10.4839647,7.22926827 11.3623339,8.11707316 11.3623339,9.25853659 C11.3623339,10.4 10.5467053,11.2878049 9.48011406,11.2878049 Z M9.48011406,7.8 C8.72722612,7.8 8.03707883,8.49756097 8.03707883,9.32195122 C8.03707883,10.1463415 8.66448546,10.8439024 9.48011406,10.8439024 C10.2957427,10.8439024 10.9231493,10.1463415 10.9231493,9.32195122 C10.9231493,8.49756097 10.2957427,7.8 9.48011406,7.8 Z" id="Shape"></path>
                    </g>
                </g>
                <polygon id="Shape" fill="#FFFFFF" fill-rule="nonzero" points="65.2103982 26.3057221 65.2103982 26.3057221 65.2103982 26.3057221 65.4378496 26.3057221"></polygon>
                <path d="M76.6595149,26.3681108 L70.8857483,26.3681108 C70.7217208,26.3681108 70.5576934,26.5240826 70.5576934,26.6800544 L70.5576934,30.0490453 C70.5576934,30.2362115 70.7217208,30.3609889 70.8857483,30.3609889 L76.6595149,30.3609889 C76.8235423,30.3609889 76.9875698,30.2362115 76.9875698,30.0490453 L76.9875698,26.6800544 C76.9875698,26.4928882 76.8235423,26.3681108 76.6595149,26.3681108 Z M76.3642654,29.3939637 C76.3642654,29.6123243 76.200238,29.7682961 75.9705995,29.7682961 L71.5746636,29.7682961 C71.3450252,29.7682961 71.1809977,29.6123243 71.1809977,29.3939637 L71.1809977,27.335136 C71.1809977,27.1167754 71.3450252,26.9608036 71.5746636,26.9608036 L75.9377941,26.9608036 C76.1674325,26.9608036 76.33146,27.1167754 76.33146,27.335136 L76.33146,29.3939637 L76.3642654,29.3939637 Z" id="Shape" fill="#FFFFFF" fill-rule="nonzero"></path>
                <polygon id="Shape" fill="#FFFFFF" fill-rule="nonzero" points="72.4276064 30.7041269 75.1176568 30.7041269 75.1176568 31.1624602 72.4276064 31.1624602"></polygon>
                <path d="M69.0814462,21.0026808 L63.3404851,21.0026808 C63.1436522,21.0026808 63.0124302,21.1586526 63.0124302,21.3146244 L63.0124302,24.6836153 C63.0124302,24.8707815 63.1436522,24.9955589 63.3404851,24.9955589 L69.1142517,24.9955589 C69.3110847,24.9955589 69.4423066,24.8707815 69.4423066,24.6836153 L69.4423066,21.3146244 C69.4095011,21.1274582 69.2782792,21.0026808 69.0814462,21.0026808 Z M68.7861968,24.0285337 C68.7861968,24.2468943 68.6221693,24.4028661 68.3925309,24.4028661 L64.0294005,24.4028661 C63.799762,24.4028661 63.6357346,24.2468943 63.6357346,24.0285337 L63.6357346,21.9697059 C63.6357346,21.7513454 63.799762,21.5953736 64.0294005,21.5953736 L68.3925309,21.5953736 C68.6221693,21.5953736 68.7861968,21.7513454 68.7861968,21.9697059 L68.7861968,24.0285337 Z" id="Shape" fill="#FFFFFF" fill-rule="nonzero"></path>
                <polygon id="Shape" fill="#FFFFFF" fill-rule="nonzero" points="64.8823432 25.3386969 67.5723936 25.3386969 67.5723936 25.7970302 64.8823432 25.7970302 64.8823432 25.3386969"></polygon>
                <polygon id="Shape" fill="#FFFFFF" fill-rule="nonzero" points="73.4445767 23.0615086 73.9112433 23.0615086 73.9112433 26.4616939 73.4445767 26.4616939 73.4445767 23.0615086"></polygon>
                <path d="M73.8382426,21.3146244 C73.2477437,21.3146244 72.7884668,21.7825398 72.7884668,22.3128439 C72.7884668,22.843148 73.2805492,23.3110634 73.8382426,23.3110634 C74.4287414,23.3110634 74.8880183,22.843148 74.8880183,22.3128439 C74.8880183,21.7825398 74.4287414,21.3146244 73.8382426,21.3146244 Z M73.8382426,22.9055368 C73.5101876,22.9055368 73.2149382,22.6559819 73.2149382,22.3128439 C73.2149382,21.9697059 73.4773822,21.7201511 73.8382426,21.7201511 C74.199103,21.7201511 74.4615469,21.9697059 74.4615469,22.3128439 C74.4615469,22.6559819 74.199103,22.9055368 73.8382426,22.9055368 Z" id="Shape" fill="#FFFFFF" fill-rule="nonzero"></path>
                <polygon id="Shape" fill="#FFFFFF" fill-rule="nonzero" points="66.9818947 28.7076878 70.5576934 28.7076878 70.5576934 29.1660211 66.9818947 29.1660211 66.9818947 28.7076878"></polygon>
                <polygon id="Shape" fill="#FFFFFF" fill-rule="nonzero" points="69.4095011 22.1568721 72.9852998 22.1568721 72.9852998 22.6152054 69.4095011 22.6152054 69.4095011 22.1568721"></polygon>
                <polygon id="Shape" fill="#FFFFFF" fill-rule="nonzero" points="66.1289519 25.7130292 66.5956186 25.7130292 66.5956186 28.3021611 66.1289519 28.3021611"></polygon>
                <path d="M66.1289519,28.0214119 C65.5384531,28.0214119 65.0791762,28.4893273 65.0791762,29.0196314 C65.0791762,29.5499355 65.5712586,30.017851 66.1289519,30.017851 C66.6866453,30.017851 67.1787277,29.5499355 67.1787277,29.0196314 C67.1787277,28.4893273 66.7194508,28.0214119 66.1289519,28.0214119 Z M66.1289519,29.6123243 C65.800897,29.6123243 65.5056476,29.3627694 65.5056476,29.0196314 C65.5056476,28.6764935 65.7680915,28.4269386 66.1289519,28.4269386 C66.4898124,28.4269386 66.7522563,28.6764935 66.7522563,29.0196314 C66.7522563,29.3627694 66.4570069,29.6123243 66.1289519,29.6123243 Z" id="Shape" fill="#FFFFFF" fill-rule="nonzero"></path>
            </g>
        </g>
    </g>
</svg>