<?xml version="1.0" encoding="UTF-8"?>
<svg width="126px" height="36px" viewBox="0 0 126 36" version="1.1" xmlns="http://www.w3.org/2000/svg" xmlns:xlink="http://www.w3.org/1999/xlink">
    <!-- Generator: Sketch 44.1 (41455) - http://www.bohemiancoding.com/sketch -->
    <title>Artboard</title>
    <desc>Created with Sketch.</desc>
    <defs></defs>
    <g id="Page-1" stroke="none" stroke-width="1" fill="none" fill-rule="evenodd">
        <g id="Artboard">
            <g id="Group">
                <g id="编辑" transform="translate(40.000000, 24.000000)" fill-rule="nonzero" fill="#4B556A">
                    <path d="M3.10936491,8.34452261 C3.10936491,8.45386935 3.14725511,8.56321608 3.26092573,8.67256281 C3.33670614,8.74546064 3.45037675,8.78190955 3.60193757,8.78190955 C3.71560818,8.78190955 3.867169,8.74546064 3.94294941,8.6361139 L10.8389666,0.79959799 C10.914747,0.726700168 10.9905274,0.617353434 10.9905274,0.471557789 C10.9905274,0.325762144 10.9526372,0.252864322 10.8389666,0.143517588 C10.6495156,-0.0387269682 10.346394,-0.0387269682 10.1569429,0.143517588 L3.26092573,7.9800335 C3.14725511,8.08938023 3.10936491,8.23517588 3.10936491,8.34452261 L3.10936491,8.34452261 Z" id="Shape"></path>
                    <path d="M10.4979548,5.53795645 C10.2327234,5.53795645 10.0432723,5.72020101 10.0432723,5.97534338 L10.0432723,10.1305193 C10.0432723,10.3127638 9.89171152,10.4585595 9.66437029,10.4585595 L1.29063509,10.4585595 C1.10118407,10.4585595 0.911733046,10.3127638 0.911733046,10.1305193 L0.911733046,2.36690117 C0.911733046,2.18465662 1.06329386,2.03886097 1.29063509,2.03886097 L5.19332616,2.03886097 C5.45855759,2.03886097 5.64800861,1.85661642 5.64800861,1.60147404 C5.64800861,1.34633166 5.42066738,1.1640871 5.19332616,1.1640871 L1.29063509,1.1640871 C0.570721206,1.1640871 0.00236813778,1.71082077 0.00236813778,2.36690117 L0.00236813778,10.1305193 C0.00236813778,10.7865997 0.570721206,11.3333333 1.29063509,11.3333333 L9.66437029,11.3333333 C10.3842842,11.3333333 10.9526372,10.7865997 10.9526372,10.1305193 L10.9526372,5.97534338 C10.9526372,5.72020101 10.725296,5.53795645 10.4979548,5.53795645 L10.4979548,5.53795645 Z" id="Shape"></path>
                </g>
                <g id="编辑-copy" transform="translate(40.000000, 0.000000)" fill-rule="nonzero" fill="#DC1644">
                    <path d="M3.10936491,8.34452261 C3.10936491,8.45386935 3.14725511,8.56321608 3.26092573,8.67256281 C3.33670614,8.74546064 3.45037675,8.78190955 3.60193757,8.78190955 C3.71560818,8.78190955 3.867169,8.74546064 3.94294941,8.6361139 L10.8389666,0.79959799 C10.914747,0.726700168 10.9905274,0.617353434 10.9905274,0.471557789 C10.9905274,0.325762144 10.9526372,0.252864322 10.8389666,0.143517588 C10.6495156,-0.0387269682 10.346394,-0.0387269682 10.1569429,0.143517588 L3.26092573,7.9800335 C3.14725511,8.08938023 3.10936491,8.23517588 3.10936491,8.34452261 L3.10936491,8.34452261 Z" id="Shape"></path>
                    <path d="M10.4979548,5.53795645 C10.2327234,5.53795645 10.0432723,5.72020101 10.0432723,5.97534338 L10.0432723,10.1305193 C10.0432723,10.3127638 9.89171152,10.4585595 9.66437029,10.4585595 L1.29063509,10.4585595 C1.10118407,10.4585595 0.911733046,10.3127638 0.911733046,10.1305193 L0.911733046,2.36690117 C0.911733046,2.18465662 1.06329386,2.03886097 1.29063509,2.03886097 L5.19332616,2.03886097 C5.45855759,2.03886097 5.64800861,1.85661642 5.64800861,1.60147404 C5.64800861,1.34633166 5.42066738,1.1640871 5.19332616,1.1640871 L1.29063509,1.1640871 C0.570721206,1.1640871 0.00236813778,1.71082077 0.00236813778,2.36690117 L0.00236813778,10.1305193 C0.00236813778,10.7865997 0.570721206,11.3333333 1.29063509,11.3333333 L9.66437029,11.3333333 C10.3842842,11.3333333 10.9526372,10.7865997 10.9526372,10.1305193 L10.9526372,5.97534338 C10.9526372,5.72020101 10.725296,5.53795645 10.4979548,5.53795645 L10.4979548,5.53795645 Z" id="Shape"></path>
                </g>
                <g id="删除" transform="translate(61.000000, 24.000000)" fill-rule="nonzero" fill="#4B556A">
                    <path d="M4.25159944,9.49513889 C4.52698192,9.49513889 4.75187761,9.27208333 4.75187761,8.99555556 L4.75187761,3.00972222 C4.75187761,2.73472222 4.52851182,2.51013889 4.25159944,2.51013889 C3.97621697,2.51013889 3.75132128,2.73319444 3.75132128,3.00972222 L3.75132128,8.99708333 C3.75132128,9.27208333 3.97468707,9.49513889 4.25159944,9.49513889 Z M10.496662,1.01291667 L6.24965229,1.01291667 L6.24965229,0.513333333 C6.24965229,0.238333333 6.02628651,0.01375 5.74937413,0.01375 L5.24909597,0.01375 C4.97371349,0.01375 4.7488178,0.236805556 4.7488178,0.513333333 L4.7488178,1.01291667 L0.503337969,1.01291667 C0.227955494,1.01291667 0.00305980529,1.23597222 0.00305980529,1.5125 C0.00305980529,1.7875 0.226425591,2.01208333 0.503337969,2.01208333 L1.25299026,2.01208333 L1.25299026,9.99472222 C1.25299026,10.54625 1.69972184,10.9923611 2.25201669,10.9923611 L8.74645341,10.9923611 C9.29874826,10.9923611 9.74547983,10.54625 9.74547983,9.99472222 L9.74547983,2.01208333 L10.4951321,2.01208333 C10.7705146,2.01208333 10.9954103,1.78902778 10.9954103,1.5125 C10.9954103,1.23597222 10.7720445,1.01291667 10.496662,1.01291667 L10.496662,1.01291667 Z M8.74798331,9.49513889 C8.74798331,9.77013889 8.52461752,9.99472222 8.24770515,9.99472222 L2.75229485,9.99472222 C2.47691238,9.99472222 2.25201669,9.77166667 2.25201669,9.49513889 L2.25201669,2.01208333 L8.74645341,2.01208333 L8.74645341,9.49513889 L8.74798331,9.49513889 L8.74798331,9.49513889 Z M6.74840056,9.49513889 C7.02378303,9.49513889 7.24867872,9.27208333 7.24867872,8.99555556 L7.24867872,3.00972222 C7.24867872,2.73472222 7.02531293,2.51013889 6.74840056,2.51013889 C6.47301808,2.51013889 6.24812239,2.73319444 6.24812239,3.00972222 L6.24812239,8.99708333 C6.24965229,9.27208333 6.47301808,9.49513889 6.74840056,9.49513889 Z" id="Shape"></path>
                </g>
                <g id="删除-copy" transform="translate(61.000000, 0.000000)" fill-rule="nonzero" fill="#DF0D40">
                    <path d="M4.25159944,9.49513889 C4.52698192,9.49513889 4.75187761,9.27208333 4.75187761,8.99555556 L4.75187761,3.00972222 C4.75187761,2.73472222 4.52851182,2.51013889 4.25159944,2.51013889 C3.97621697,2.51013889 3.75132128,2.73319444 3.75132128,3.00972222 L3.75132128,8.99708333 C3.75132128,9.27208333 3.97468707,9.49513889 4.25159944,9.49513889 Z M10.496662,1.01291667 L6.24965229,1.01291667 L6.24965229,0.513333333 C6.24965229,0.238333333 6.02628651,0.01375 5.74937413,0.01375 L5.24909597,0.01375 C4.97371349,0.01375 4.7488178,0.236805556 4.7488178,0.513333333 L4.7488178,1.01291667 L0.503337969,1.01291667 C0.227955494,1.01291667 0.00305980529,1.23597222 0.00305980529,1.5125 C0.00305980529,1.7875 0.226425591,2.01208333 0.503337969,2.01208333 L1.25299026,2.01208333 L1.25299026,9.99472222 C1.25299026,10.54625 1.69972184,10.9923611 2.25201669,10.9923611 L8.74645341,10.9923611 C9.29874826,10.9923611 9.74547983,10.54625 9.74547983,9.99472222 L9.74547983,2.01208333 L10.4951321,2.01208333 C10.7705146,2.01208333 10.9954103,1.78902778 10.9954103,1.5125 C10.9954103,1.23597222 10.7720445,1.01291667 10.496662,1.01291667 L10.496662,1.01291667 Z M8.74798331,9.49513889 C8.74798331,9.77013889 8.52461752,9.99472222 8.24770515,9.99472222 L2.75229485,9.99472222 C2.47691238,9.99472222 2.25201669,9.77166667 2.25201669,9.49513889 L2.25201669,2.01208333 L8.74645341,2.01208333 L8.74645341,9.49513889 L8.74798331,9.49513889 L8.74798331,9.49513889 Z M6.74840056,9.49513889 C7.02378303,9.49513889 7.24867872,9.27208333 7.24867872,8.99555556 L7.24867872,3.00972222 C7.24867872,2.73472222 7.02531293,2.51013889 6.74840056,2.51013889 C6.47301808,2.51013889 6.24812239,2.73319444 6.24812239,3.00972222 L6.24812239,8.99708333 C6.24965229,9.27208333 6.47301808,9.49513889 6.74840056,9.49513889 Z" id="Shape"></path>
                </g>
                <g id="增加" transform="translate(0.000000, 24.000000)" fill-rule="nonzero" fill="#4B556A">
                    <rect id="Rectangle-6" x="0" y="5" width="10" height="1"></rect>
                    <rect id="Rectangle-6-Copy" transform="translate(5.000000, 5.500000) rotate(90.000000) translate(-5.000000, -5.500000) " x="-8.8817842e-16" y="5" width="10" height="1"></rect>
                </g>
                <g id="增加-copy" fill-rule="nonzero" fill="#DF0D40">
                    <rect id="Rectangle-6" x="0" y="5" width="10" height="1"></rect>
                    <rect id="Rectangle-6-Copy" transform="translate(5.000000, 5.500000) rotate(90.000000) translate(-5.000000, -5.500000) " x="-8.8817842e-16" y="5" width="10" height="1"></rect>
                </g>
                <g id="2栏" transform="translate(19.000000, 24.000000)" stroke="#4B556A">
                    <rect id="Rectangle-7" x="0.5" y="0.5" width="4" height="10" rx="1"></rect>
                    <rect id="Rectangle-7-Copy" x="6.5" y="0.5" width="4" height="10" rx="1"></rect>
                </g>
                <g id="2栏-copy" transform="translate(19.000000, 0.000000)" stroke="#DC1644">
                    <rect id="Rectangle-7" x="0.5" y="0.5" width="4" height="10" rx="1"></rect>
                    <rect id="Rectangle-7-Copy" x="6.5" y="0.5" width="4" height="10" rx="1"></rect>
                </g>
                <g id="2栏" transform="translate(84.500000, 30.500000) rotate(-90.000000) translate(-84.500000, -30.500000) translate(79.000000, 25.000000)" stroke="#4B556A">
                    <rect id="Rectangle-7" x="0.5" y="0.5" width="4" height="10" rx="1"></rect>
                    <rect id="Rectangle-7-Copy" x="6.5" y="0.5" width="4" height="10" rx="1"></rect>
                </g>
                <g id="2栏-copy-2" transform="translate(84.500000, 6.500000) rotate(-90.000000) translate(-84.500000, -6.500000) translate(79.000000, 1.000000)" stroke="#DC1644">
                    <rect id="Rectangle-7" x="0.5" y="0.5" width="4" height="10" rx="1"></rect>
                    <rect id="Rectangle-7-Copy" x="6.5" y="0.5" width="4" height="10" rx="1"></rect>
                </g>
                <g id="关闭-(1)" transform="translate(97.000000, 1.000000)" fill-rule="nonzero" fill="#E2003B">
                    <path d="M9.14622517,9.84520971 L4.9996468,5.69863135 L0.853774834,9.84450331 C0.660927152,10.037351 0.34799117,10.0387638 0.154437086,9.84520971 C-0.0380573951,9.65271523 -0.0369977925,9.33907285 0.155496689,9.14622517 L4.30172185,5.0003532 L0.155496689,0.854128035 C-0.0373509934,0.661280353 -0.0369977925,0.347284768 0.155496689,0.154790287 C0.348697572,-0.038410596 0.661633554,-0.0380573951 0.854834437,0.155143488 L5.0007064,4.30101545 L9.14657837,0.155143488 C9.33977925,-0.0380573951 9.65236203,-0.0380573951 9.84520971,0.154790287 C10.0387638,0.348344371 10.0380574,0.660220751 9.84485651,0.853421634 L5.69898455,4.9992936 L9.84556291,9.14587196 C10.039117,9.33907285 10.039117,9.65200883 9.84591611,9.84485651 C9.65342163,10.0387638 9.33977925,10.0387638 9.14622517,9.84520971 Z" id="Shape"></path>
                </g>
                <g id="关闭-(1)" transform="translate(97.000000, 25.000000)" fill-rule="nonzero" fill="#4B556A">
                    <path d="M9.14622517,9.84520971 L4.9996468,5.69863135 L0.853774834,9.84450331 C0.660927152,10.037351 0.34799117,10.0387638 0.154437086,9.84520971 C-0.0380573951,9.65271523 -0.0369977925,9.33907285 0.155496689,9.14622517 L4.30172185,5.0003532 L0.155496689,0.854128035 C-0.0373509934,0.661280353 -0.0369977925,0.347284768 0.155496689,0.154790287 C0.348697572,-0.038410596 0.661633554,-0.0380573951 0.854834437,0.155143488 L5.0007064,4.30101545 L9.14657837,0.155143488 C9.33977925,-0.0380573951 9.65236203,-0.0380573951 9.84520971,0.154790287 C10.0387638,0.348344371 10.0380574,0.660220751 9.84485651,0.853421634 L5.69898455,4.9992936 L9.84556291,9.14587196 C10.039117,9.33907285 10.039117,9.65200883 9.84591611,9.84485651 C9.65342163,10.0387638 9.33977925,10.0387638 9.14622517,9.84520971 Z" id="Shape"></path>
                </g>
                <polygon id="Shape" stroke="#FFFFFF" fill="#E2003B" fill-rule="nonzero" points="118.331 2.183 118.331 0 114 3.173 118.331 6.369 118.331 4.237 123.628 4.237 123.628 9.785 116.008 9.785 116.008 11.707 125.719 11.707 125.719 2.183"></polygon>
                <polygon id="Shape" stroke="#FFFFFF" fill="#48556B" fill-rule="nonzero" points="118.331 26.183 118.331 24 114 27.173 118.331 30.369 118.331 28.237 123.628 28.237 123.628 33.785 116.008 33.785 116.008 35.707 125.719 35.707 125.719 26.183"></polygon>
            </g>
        </g>
    </g>
</svg>