<?xml version="1.0" encoding="UTF-8"?>
<svg width="87px" height="75px" viewBox="0 0 87 75" version="1.1" xmlns="http://www.w3.org/2000/svg" xmlns:xlink="http://www.w3.org/1999/xlink">
    <!-- Generator: Sketch 44.1 (41455) - http://www.bohemiancoding.com/sketch -->
    <title>Artboard 2</title>
    <desc>Created with Sketch.</desc>
    <defs></defs>
    <g id="Page-1" stroke="none" stroke-width="1" fill="none" fill-rule="evenodd">
        <g id="Artboard-2" fill-rule="nonzero">
            <g id="Group">
                <path d="M12,0 C5.373,0 0,5.373 0,12 C0,18.627 5.373,24 12,24 C18.627,24 24,18.627 24,12 C24,5.373 18.627,0 12,0 Z M12,22 C6.477,22 2,17.523 2,12 C2,6.477 6.477,2 12,2 C17.523,2 22,6.477 22,12 C22,14.6521649 20.9464316,17.195704 19.0710678,19.0710678 C17.195704,20.9464316 14.6521649,22 12,22 L12,22 Z M12,6 C11.4504509,6.00384694 11.0069865,6.45043741 11.007,7 L11.007,12.99 C10.9955048,13.3520988 11.1821199,13.6917216 11.4939309,13.8761709 C11.8057419,14.0606203 12.1932581,14.0606203 12.5050691,13.8761709 C12.8168801,13.6917216 13.0034952,13.3520988 12.992,12.99 L12.992,7 C12.993596,6.73568303 12.8898509,6.48161511 12.7036993,6.29396228 C12.5175477,6.10630944 12.2643213,6.00052702 12,6 L12,6 Z M12,16 C11.4521335,15.9994477 11.0075523,16.4431335 11.007,16.991 C11.0064477,17.5388665 11.4501335,17.9834477 11.998,17.984 C12.5458665,17.9845523 12.9904477,17.5408665 12.991,16.993 C12.9915523,16.4451335 12.5478665,16.0005523 12,16 Z M12.992,17 L12.992,16.99 L12.992,17 Z M79.5,4 C75.3578644,4 72,7.35786438 72,11.5 C72,15.6421356 75.3578644,19 79.5,19 C83.6421356,19 87,15.6421356 87,11.5 C87,7.35786438 83.6421356,4 79.5,4 Z M79.5,17.75 C76.0482203,17.75 73.25,14.9517797 73.25,11.5 C73.25,8.04822031 76.0482203,5.25 79.5,5.25 C82.9517797,5.25 85.75,8.04822031 85.75,11.5 C85.75,14.9517797 82.9517797,17.75 79.5,17.75 Z M79.5,7.75 C79.1567762,7.75274588 78.879989,8.03176526 78.88,8.375 L78.88,12.119 C78.88,12.4614165 79.1575835,12.739 79.5,12.739 C79.8424165,12.739 80.12,12.4614165 80.12,12.119 L80.12,8.375 C80.1210644,8.20978177 80.0562454,8.05095054 79.9398862,7.93365294 C79.8235269,7.81635533 79.6652215,7.75026263 79.5,7.75 L79.5,7.75 Z M79.5,14 C79.2784953,13.9998214 79.0737213,14.1178276 78.9628142,14.309567 C78.8519072,14.5013063 78.8517166,14.737649 78.9623142,14.929567 C79.0729119,15.121485 79.2774953,15.2398214 79.499,15.24 C79.8414165,15.2402761 80.1192238,14.9629165 80.1195,14.6205 C80.1197761,14.2780835 79.8424165,14.0002761 79.5,14 Z M80.12,14.625 L80.12,14.619 L80.12,14.625 Z" id="Shape" fill="#E2003B"></path>
                <path d="M57.86,11.9933517 C57.5436084,11.958909 57.226526,12.0518839 56.978832,12.2517279 C56.731138,12.451572 56.5732272,12.7418301 56.54,13.0583517 C56.3092287,15.2253895 55.3337633,17.2452391 53.78,18.7733517 C51.9896454,20.5845766 49.5467336,21.600655 47,21.5933517 C44.4526121,21.5966166 42.0083049,20.587598 40.205,18.7883517 C36.455,15.0383517 36.455,8.94835171 40.205,5.21335171 C43.1203968,2.30201937 47.5667772,1.57201663 51.26,3.39835171 C51.86,3.69835171 52.58,3.44335171 52.865,2.85835171 C53.165,2.25835171 52.91,1.53835171 52.325,1.25335171 C47.7119732,-1.04039412 42.149078,-0.128345071 38.51,3.51835171 C33.83,8.19835171 33.83,15.8033517 38.51,20.4833517 C40.7575346,22.7404433 43.8147602,24.0043846 47,23.9933517 C50.21,23.9933517 53.225,22.7483517 55.49,20.4833517 C57.4123579,18.5562586 58.6234586,16.0335727 58.925,13.3283517 C58.9975987,12.6661765 58.521754,12.0696951 57.86,11.9933517 L57.86,11.9933517 Z" id="Shape" fill="#10C953"></path>
                <path d="M44.0438043,9.74880426 C43.5745088,9.28373191 42.8180997,9.28373191 42.3488043,9.74880426 C41.8837319,10.2180997 41.8837319,10.9745088 42.3488043,11.4438043 L46.5488043,15.6438043 C46.7888043,15.8838043 47.0888043,15.9888043 47.4038043,15.9888043 C47.7188043,15.9888043 48.0188043,15.8688043 48.2588043,15.6438043 L57.8588043,6.04380426 C58.3238766,5.57450882 58.3238766,4.81809971 57.8588043,4.34880426 C57.3895088,3.88373191 56.6330997,3.88373191 56.1638043,4.34880426 L47.3888043,13.1088043 L44.0438043,9.74880426 L44.0438043,9.74880426 Z" id="Shape" fill="#10C953"></path>
                <path d="M2.546,46.729 L3.355,46.758 L2.546,46.758 L2.546,63.276 L19.094,71.55 L19.094,53.73 L2.546,45.456 L2.546,46.729 Z M35.68,44.144 L20.366,36.467 L14.461,39.43 L29.849,47.084 L35.68,44.144 Z M11.792,40.875 L5.052,44.183 L20.365,51.78 L27.378,48.384 L11.792,40.875 L11.792,40.875 Z M21.639,71.55 L38.186,63.276 L38.186,45.456 L21.639,53.73 L21.639,71.55 L21.639,71.55 Z M40.732,64.549 L20.366,74.731 L0,64.549 L0,44.164 L0.038,44.164 L20.366,34 L40.731,44.183 L40.732,44.183 L40.732,64.549 L40.732,64.549 Z" id="Shape" fill="#FFFFFF"></path>
            </g>
        </g>
    </g>
</svg>