<svg width="182" height="48" viewBox="0 0 182 48" xmlns="http://www.w3.org/2000/svg"><title>Group</title><g fill="none" fill-rule="evenodd"><path d="M12.218 4.98c.243.627.382 1.306.382 2.02A5.6 5.6 0 0 1 7 12.6a5.571 5.571 0 0 1-2.02-.382l-1.427.87A6.964 6.964 0 0 0 7 14a7 7 0 0 0 7-7 6.961 6.961 0 0 0-.911-3.447l-.87 1.426zM7.495 7.494a.7.7 0 1 1-.99-.988.7.7 0 0 1 .99.988zM13.639.36L5.515 5.516.36 13.64l8.125-5.155L13.639.36zM1.4 7A5.6 5.6 0 0 1 7 1.4c.713 0 1.393.139 2.02.382l1.427-.87A6.963 6.963 0 0 0 7 0a7 7 0 0 0-7 7c0 1.254.334 2.428.911 3.447l.87-1.426A5.586 5.586 0 0 1 1.4 7z" fill="#10C953"/><path d="M36.218 4.98c.243.627.382 1.306.382 2.02a5.6 5.6 0 0 1-5.6 5.6 5.571 5.571 0 0 1-2.02-.382l-1.427.87A6.964 6.964 0 0 0 31 14a7 7 0 0 0 7-7 6.961 6.961 0 0 0-.911-3.447l-.87 1.426zm-4.723 2.515a.7.7 0 1 1-.99-.988.7.7 0 0 1 .99.988zM37.639.36l-8.124 5.155-5.155 8.125 8.125-5.155L37.639.36zM25.4 7A5.6 5.6 0 0 1 31 1.4c.713 0 1.393.139 2.02.382l1.427-.87A6.963 6.963 0 0 0 31 0a7 7 0 0 0-7 7c0 1.254.334 2.428.911 3.447l.87-1.426A5.586 5.586 0 0 1 25.4 7z" fill="#E2003B"/><path d="M60.218 4.98c.243.627.382 1.306.382 2.02a5.6 5.6 0 0 1-5.6 5.6 5.571 5.571 0 0 1-2.02-.382l-1.427.87A6.964 6.964 0 0 0 55 14a7 7 0 0 0 7-7 6.961 6.961 0 0 0-.911-3.447l-.87 1.426zm-4.723 2.515a.7.7 0 1 1-.99-.988.7.7 0 0 1 .99.988zM61.639.36l-8.124 5.155-5.154 8.124 8.124-5.154L61.639.36zM49.4 7A5.6 5.6 0 0 1 55 1.4c.713 0 1.393.139 2.02.381l1.427-.87A6.963 6.963 0 0 0 55 0a7 7 0 0 0-7 7c0 1.254.334 2.428.911 3.447l.87-1.426A5.586 5.586 0 0 1 49.4 7z" fill="#FF7800"/><path d="M84.219 4.98c.242.627.381 1.306.381 2.02a5.6 5.6 0 0 1-5.6 5.6 5.571 5.571 0 0 1-2.02-.382l-1.427.87A6.964 6.964 0 0 0 79 14a7 7 0 0 0 7-7 6.961 6.961 0 0 0-.911-3.447l-.87 1.426zm-4.724 2.515a.7.7 0 1 1-.99-.988.7.7 0 0 1 .99.988zM85.639.36l-8.124 5.155-5.154 8.124 8.124-5.154L85.639.36zM73.4 7A5.6 5.6 0 0 1 79 1.4c.713 0 1.393.139 2.02.381l1.427-.87A6.963 6.963 0 0 0 79 0a7 7 0 0 0-7 7c0 1.254.334 2.428.911 3.447l.87-1.426A5.586 5.586 0 0 1 73.4 7z" fill="#2B90E8"/><path d="M156.219 4.98c.242.627.381 1.306.381 2.02a5.6 5.6 0 0 1-5.6 5.6 5.571 5.571 0 0 1-2.02-.382l-1.427.87A6.964 6.964 0 0 0 151 14a7 7 0 0 0 7-7 6.961 6.961 0 0 0-.911-3.447l-.87 1.426zm-4.724 2.515a.7.7 0 1 1-.99-.988.7.7 0 0 1 .99.988zM157.639.36l-8.124 5.155-5.154 8.125 8.124-5.155L157.639.36zM145.4 7a5.6 5.6 0 0 1 5.6-5.6c.713 0 1.393.139 2.02.382l1.427-.87A6.963 6.963 0 0 0 151 0a7 7 0 0 0-7 7c0 1.254.334 2.428.911 3.447l.87-1.426A5.586 5.586 0 0 1 145.4 7z" fill="#B169FA"/><path d="M108.219 4.98c.242.627.381 1.306.381 2.02a5.6 5.6 0 0 1-5.6 5.6 5.571 5.571 0 0 1-2.02-.382l-1.427.87A6.964 6.964 0 0 0 103 14a7 7 0 0 0 7-7 6.961 6.961 0 0 0-.911-3.447l-.87 1.426zm-4.724 2.515a.7.7 0 1 1-.99-.988.7.7 0 0 1 .99.988zM109.639.36l-8.124 5.155-5.154 8.125 8.124-5.155L109.639.36zM97.4 7a5.6 5.6 0 0 1 5.6-5.6c.713 0 1.393.139 2.02.382l1.427-.87A6.963 6.963 0 0 0 103 0a7 7 0 0 0-7 7c0 1.254.334 2.428.911 3.447l.87-1.426A5.586 5.586 0 0 1 97.4 7z" fill="#BDBDBE"/><path d="M132.219 4.98c.242.627.381 1.306.381 2.02a5.6 5.6 0 0 1-5.6 5.6 5.571 5.571 0 0 1-2.02-.382l-1.427.87A6.964 6.964 0 0 0 127 14a7 7 0 0 0 7-7 6.961 6.961 0 0 0-.911-3.447l-.87 1.426zm-4.724 2.515a.7.7 0 1 1-.99-.988.7.7 0 0 1 .99.988zM133.639.36l-8.124 5.155-5.154 8.124 8.124-5.154L133.639.36zM121.4 7a5.6 5.6 0 0 1 5.6-5.6c.713 0 1.393.139 2.02.381l1.427-.87A6.963 6.963 0 0 0 127 0a7 7 0 0 0-7 7c0 1.254.334 2.428.911 3.447l.87-1.426A5.586 5.586 0 0 1 121.4 7z" fill="#F6BD06"/><path d="M12 24C5.373 24 0 29.373 0 36s5.373 12 12 12 12-5.373 12-12-5.373-12-12-12zm0 22C6.477 46 2 41.523 2 36s4.477-10 10-10 10 4.477 10 10a10 10 0 0 1-10 10zm0-16a1 1 0 0 0-.993 1v5.99a.993.993 0 1 0 1.985 0V31A.994.994 0 0 0 12 30zm0 10a.992.992 0 1 0-.002 1.984A.992.992 0 0 0 12 40zm.992 1v-.01.01zM79.5 28a7.5 7.5 0 1 0 0 15 7.5 7.5 0 0 0 0-15zm0 13.75a6.25 6.25 0 1 1 0-12.5 6.25 6.25 0 0 1 0 12.5zm0-10a.625.625 0 0 0-.62.625v3.744a.62.62 0 1 0 1.24 0v-3.744a.621.621 0 0 0-.62-.625zm0 6.25a.62.62 0 1 0-.001 1.24A.62.62 0 0 0 79.5 38zm.62.625v-.006.006z" fill="#E2003B"/><path d="M57.86 35.993a1.197 1.197 0 0 0-1.32 1.065 9.414 9.414 0 0 1-2.76 5.715 9.495 9.495 0 0 1-6.78 2.82 9.603 9.603 0 0 1-6.795-2.805c-3.75-3.75-3.75-9.84 0-13.575a9.614 9.614 0 0 1 11.055-1.815c.6.3 1.32.045 1.605-.54.3-.6.045-1.32-.54-1.605a11.981 11.981 0 0 0-13.815 2.265c-4.68 4.68-4.68 12.285 0 16.965a11.923 11.923 0 0 0 8.49 3.51c3.21 0 6.225-1.245 8.49-3.51a12.016 12.016 0 0 0 3.435-7.155 1.211 1.211 0 0 0-1.065-1.335z" fill="#10C953"/><path d="M44.044 33.749a1.204 1.204 0 0 0-1.695 0 1.204 1.204 0 0 0 0 1.695l4.2 4.2c.24.24.54.345.855.345.315 0 .615-.12.855-.345l9.6-9.6a1.204 1.204 0 0 0 0-1.695 1.204 1.204 0 0 0-1.695 0l-8.775 8.76-3.345-3.36z" fill="#10C953"/><path d="M105.428 31.887a.506.506 0 0 0-.301-.451l-7.375-3.387a.463.463 0 0 0-.526.076c-.15.075-.226.3-.226.451v13.545c0 .3.226.601.602.601a.593.593 0 0 0 .602-.602v-5.568l7.073-4.138c.075-.15.15-.377.15-.527zm-7.375 3.31v-5.793l5.569 2.558-5.569 3.236z" fill="#E2003B"/><path d="M180.219 4.98c.242.627.381 1.306.381 2.02a5.6 5.6 0 0 1-5.6 5.6 5.571 5.571 0 0 1-2.02-.382l-1.427.87A6.964 6.964 0 0 0 175 14a7 7 0 0 0 7-7 6.961 6.961 0 0 0-.911-3.447l-.87 1.426zm-4.724 2.515a.7.7 0 1 1-.99-.988.7.7 0 0 1 .99.988zM181.639.36l-8.124 5.155-5.154 8.125 8.124-5.155L181.639.36zM169.4 7a5.6 5.6 0 0 1 5.6-5.6c.713 0 1.393.139 2.02.382l1.427-.87A6.963 6.963 0 0 0 175 0a7 7 0 0 0-7 7c0 1.254.334 2.428.911 3.447l.87-1.426A5.586 5.586 0 0 1 169.4 7z" fill="#8EA9C1"/></g></svg>