<?xml version="1.0" encoding="UTF-8"?>
<svg width="147px" height="38px" viewBox="0 0 147 38" version="1.1" xmlns="http://www.w3.org/2000/svg" xmlns:xlink="http://www.w3.org/1999/xlink">
    <!-- Generator: Sketch 43 (38999) - http://www.bohemiancoding.com/sketch -->
    <title>列表-icons</title>
    <desc>Created with Sketch.</desc>
    <defs>
        <polygon id="path-1" points="2.25000003e-05 11.926 11.9526 11.926 11.9526 7.40740741e-05 2.25000003e-05 7.40740741e-05"></polygon>
        <polygon id="path-3" points="2.25000003e-05 11.926 11.9526 11.926 11.9526 7.40740741e-05 2.25000003e-05 7.40740741e-05"></polygon>
        <polygon id="path-5" points="6.89946837e-20 13.9999045 13.9998727 13.9999045 13.9998727 2.2608178e-15 5.17460128e-20 0 0 13.9999045"></polygon>
        <polygon id="path-7" points="2.25000003e-05 11.926 11.9526 11.926 11.9526 7.40740741e-05 2.25000003e-05 7.40740741e-05"></polygon>
    </defs>
    <g id="Page-1" stroke="none" stroke-width="1" fill="none" fill-rule="evenodd">
        <g id="Artboard" transform="translate(-34.000000, -129.000000)">
            <g id="列表-icons" transform="translate(34.000000, 126.000000)">
                <path d="M5,6.5 C2.51475,6.5 0.5,6.05225 0.5,5.5 C0.5,4.94775 2.51475,4.5 5,4.5 C7.48525,4.5 9.5,4.94775 9.5,5.5 C9.5,6.05225 7.48525,6.5 5,6.5 M7.54875,8.40975 C6.5415,9.225 5.5,10.06825 5.5,11.5 C5.5,12.94275 5.5,13.8135 5.39,14.25375 C5.33425,14.47675 5.32825,14.5 5,14.5 C4.67175,14.5 4.66575,14.47675 4.61,14.25375 C4.5455,13.99525 4.519,13.584 4.50825,13 L4.75,13 C4.88825,13 5,12.888 5,12.75 C5,12.612 4.88825,12.5 4.75,12.5 L4.502,12.5 C4.501,12.34225 4.5005,12.178 4.50025,12 L4.75,12 C4.88825,12 5,11.888 5,11.75 C5,11.612 4.88825,11.5 4.75,11.5 L4.5,11.5 C4.5,10.06825 3.4585,9.225 2.45125,8.40975 C1.6405,7.75325 0.86675,7.126 0.599,6.21225 C1.444,6.6815 3.09775,7 5,7 C6.9005,7 8.55325,6.682 9.399,6.2135 C9.13,7.1285 8.358,7.75475 7.54875,8.40975 M5,4 C2.2385,4 0,4.67175 0,5.5 C0,8.5 4,9 4,11.5 L4,11.7495 L4,11.75 L4,11.7505 C4.00025,12.11625 4.001,12.4395 4.00425,12.7295 C4.0035,12.7365 4,12.74275 4,12.75 C4,12.7585 4.004,12.7655 4.005,12.77425 C4.02725,14.64125 4.16425,15 5,15 C6,15 6,14.5 6,11.5 C6,9 10,8.5 10,5.5 C10,4.67175 7.7615,4 5,4" id="Page-1" fill="#E2003B"></path>
                <g id="icon_高级搜索" transform="translate(20.000000, 25.000000)">
                    <circle id="Oval" stroke="#BBBBBB" cx="6.5" cy="6.5" r="4.23913043"></circle>
                    <rect id="Rectangle-2" fill="#BBBBBB" x="0" y="6" width="5" height="1"></rect>
                    <rect id="Rectangle-2-Copy" fill="#BBBBBB" x="8" y="6" width="5" height="1"></rect>
                    <g id="Group-4" transform="translate(6.500000, 6.500000) rotate(-270.000000) translate(-6.500000, -6.500000) translate(0.000000, 6.000000)" fill="#BBBBBB">
                        <rect id="Rectangle-2-Copy-2" x="0" y="8.8817842e-16" width="5" height="1"></rect>
                        <rect id="Rectangle-2-Copy-3" x="8" y="-8.8817842e-16" width="5" height="1"></rect>
                    </g>
                </g>
                <g id="排序-(1)" transform="translate(43.000000, 4.000000)" fill-rule="nonzero" fill="#E2003B">
                    <path d="M2.58319033,9.99965763 C2.34261027,9.99965763 2.14813142,9.7953495 2.14813142,9.54313837 L2.14813142,0.470741797 C2.14813142,0.21853067 2.34261027,0.0142510699 2.58319033,0.0142510699 C2.82353927,0.0142510699 3.01823565,0.21853067 3.01823565,0.470741797 L3.01823565,9.54313837 C3.01823565,9.7953495 2.82353927,9.99965763 2.58319033,9.99965763 Z" id="Shape"></path>
                    <path d="M0.435099698,3.18099857 C0.323891239,3.18099857 0.212478852,3.13650499 0.127672205,3.04728959 C-0.0423761329,2.86907275 -0.0423761329,2.58011412 0.127672205,2.40191155 L2.27553172,0.147931526 C2.44558006,-0.0302853067 2.72077341,-0.0302853067 2.89059063,0.147931526 C3.06063897,0.326376605 3.06063897,0.615121255 2.89059063,0.793552068 L0.742731118,3.04728959 C0.657720544,3.13650499 0.54652568,3.18099857 0.435099698,3.18099857 L0.435099698,3.18099857 Z M6.41678248,9.99965763 C6.17644713,9.99965763 5.98172356,9.7953495 5.98172356,9.54313837 L5.98172356,0.470741797 C5.98172356,0.21853067 6.17644713,0.0142510699 6.41679607,0.0142510699 C6.65715861,0.0142510699 6.85184139,0.21853067 6.85184139,0.470741797 L6.85184139,9.54313837 C6.85185498,9.7953495 6.65715861,9.99965763 6.41679607,9.99965763 L6.41678248,9.99965763 Z" id="Shape"></path>
                    <path d="M6.41678248,9.99965763 C6.30139322,9.99970311 6.1907229,9.95159921 6.10916465,9.86594864 C5.93933384,9.6875321 5.93933384,9.39875892 6.10916465,9.2203281 L8.2572281,6.96657632 C8.42705891,6.78814551 8.70246979,6.78814551 8.8723006,6.96657632 C9.04233535,7.14477889 9.04233535,7.43378031 8.8723006,7.61196862 L6.72444109,9.86593438 C6.64290807,9.951635 6.53221482,9.99975187 6.41680967,9.99965763 L6.41678248,9.99965763 Z" id="Shape"></path>
                </g>
                <path d="M73.8737261,8.75055158 C73.808717,8.38784 73.6034921,8.15528421 73.3531432,8.16121263 L73.300881,8.16121263 C72.440721,8.16121263 71.7406619,7.42150737 71.7406619,6.51203368 C71.7406619,6.21237895 71.875524,5.88389053 71.8762888,5.88146526 C72.0091114,5.56537263 71.9068813,5.1776 71.6384319,4.97953684 L71.6236455,4.96848842 L70.1233368,4.08757895 L70.1080405,4.08030316 C70.0190672,4.03934316 69.921681,4.01886316 69.8179213,4.01886316 C69.6042835,4.01886316 69.3947246,4.10886737 69.2575681,4.25950316 C69.0742679,4.45945263 68.4968339,4.97818947 68.0308076,4.97818947 C67.5604475,4.97818947 66.9794443,4.44894316 66.7956342,4.24549053 C66.6577129,4.09189053 66.4463695,4 66.2309471,4 C66.1294818,4 66.0336252,4.01994105 65.9461816,4.05955368 L65.9301205,4.06682947 L64.3767847,4.96875789 L64.3614885,4.98007579 C64.0925291,5.17733053 63.9897892,5.56510316 64.1226118,5.88065684 C64.1238865,5.88389053 64.2587485,6.21237895 64.2587485,6.51203368 C64.2587485,7.42123789 63.5589444,8.16121263 62.6985295,8.16121263 L62.6462672,8.16121263 C62.3954085,8.15501474 62.1904385,8.38784 62.1256843,8.75055158 C62.1205856,8.77911579 62,9.45845895 62,9.99363368 C62,10.5288084 62.1203306,11.2081516 62.1256843,11.2367158 C62.1896737,11.5948463 62.3903097,11.8260547 62.6368345,11.8260547 L62.6462672,11.8260547 L62.6982745,11.8260547 C63.5584345,11.8260547 64.2584936,12.56576 64.2584936,13.4752337 C64.2584936,13.7748884 64.1236315,14.1033768 64.1228667,14.1058021 C63.9900441,14.4218947 64.0920193,14.8096674 64.3599588,15.0077305 L64.3744903,15.0185095 L65.846246,15.8883705 L65.8617972,15.8956463 C65.9505155,15.9368758 66.0476468,15.9576253 66.1506417,15.9576253 C66.3668289,15.9576253 66.5774075,15.8638484 66.714309,15.7067453 C66.8869019,15.5084126 67.4875353,14.9425179 67.9683479,14.9425179 C68.4524747,14.9425179 69.0441852,15.5051789 69.2307997,15.7215663 C69.3679562,15.8813642 69.5800644,15.9767579 69.7982911,15.9767579 L69.7982911,15.9767579 C69.8992465,15.9767579 69.9945932,15.9565474 70.0817819,15.9169347 L70.097588,15.9096589 L71.6231356,15.0185095 L71.6381769,15.0074611 C71.9068813,14.8096674 72.0091114,14.4218947 71.8767987,14.1063411 C71.875524,14.1031074 71.7406619,13.7746189 71.7406619,13.4749642 C71.7406619,12.5654905 72.4404661,11.8257853 73.300881,11.8257853 L73.3531432,11.8257853 C73.6034921,11.8311747 73.808972,11.5991579 73.8737261,11.2364463 C73.8788249,11.2078821 73.9994105,10.5285389 73.9994105,9.99336421 C73.9994105,9.45845895 73.8788249,8.77911579 73.8737261,8.75055158 Z M73.4020913,11.1437474 C72.1398944,11.2130021 71.2050377,12.3202695 71.2050377,13.6711411 C71.2050377,14.1230484 71.355451,14.4801011 71.3916521,14.5695663 L69.8862446,15.4491284 L69.8836953,15.4491284 C69.8622805,15.4491284 69.8418855,15.4407747 69.8347472,15.4356547 C69.8077238,15.4043958 69.6058131,15.2330105 69.2917298,14.9864421 C68.8234091,14.61888 68.377523,14.4324042 67.9668183,14.4324042 C67.5596827,14.4324042 67.1173656,14.6153768 66.6515944,14.9759326 C66.3392956,15.21792 66.1621139,15.35104 66.1350905,15.38176 C66.1279522,15.3866105 66.1078121,15.3949642 66.0866523,15.3949642 L66.0833381,15.3949642 L64.6314676,14.5366905 C64.6671588,14.4493811 64.7946277,14.1243958 64.7946277,13.6711411 C64.7946277,12.32 63.8437099,11.2130021 62.581513,11.1437474 C62.5634124,11.0373053 62.4647515,10.4412295 62.4647515,9.99363368 C62.4647515,9.54603789 62.5634124,8.94969263 62.581513,8.84378947 C63.8437099,8.77453474 64.7946277,7.66726737 64.7946277,6.31639579 C64.7946277,5.86556632 64.6289182,5.49207579 64.5922071,5.40180211 L66.1264226,4.51119158 C66.1279522,4.51119158 66.1297368,4.51092211 66.1317763,4.51092211 C66.15727,4.51092211 66.1809793,4.52089263 66.1888823,4.52655158 C66.2138662,4.55403789 66.4295436,4.72946526 66.7398028,4.96336842 C67.1992007,5.30964211 67.6343794,5.48506947 68.0331021,5.48506947 C68.4280007,5.48506947 68.8596103,5.31287579 69.3162038,4.97360842 C69.6246785,4.74428632 69.8393361,4.53948632 69.8640651,4.51253895 C69.8719681,4.50688 69.8954224,4.49717895 69.9206612,4.49717895 C69.9229557,4.49717895 69.9249952,4.49717895 69.9267798,4.49744842 L71.4079681,5.36730947 C71.3720219,5.45569684 71.2052926,5.86421895 71.2052926,6.31666526 C71.2052926,7.66753684 72.1404043,8.77480421 73.4023462,8.84405895 C73.4204468,8.95050105 73.5191077,9.54657684 73.5191077,9.99390316 C73.5188528,10.4414989 73.4201919,11.0378442 73.4020913,11.1437474 Z M67.9734466,7.73894737 C66.8017527,7.73894737 65.8482855,8.74677895 65.8482855,9.98528 C65.8482855,11.2237811 66.8017527,12.2316126 67.9734466,12.2316126 C69.1451406,12.2316126 70.0986078,11.2237811 70.0986078,9.98528 C70.0986078,8.74677895 69.1451406,7.73894737 67.9734466,7.73894737 Z M67.9731917,11.7268884 C67.0651034,11.7268884 66.3262938,10.9459537 66.3262938,9.98608842 C66.3262938,9.02622316 67.0651034,8.24528842 67.9731917,8.24528842 C68.88128,8.24528842 69.6200896,9.02622316 69.6200896,9.98608842 C69.6200896,10.9459537 68.8815349,11.7268884 67.9731917,11.7268884 Z" id="Shape" fill="#E2003B" fill-rule="nonzero"></path>
                <g id="icon_高级搜索-copy" transform="translate(20.000000, 4.000000)">
                    <circle id="Oval" stroke="#E2003B" cx="6.5" cy="6.5" r="4.23913043"></circle>
                    <rect id="Rectangle-2" fill="#E2003B" x="0" y="6" width="5" height="1"></rect>
                    <rect id="Rectangle-2-Copy" fill="#E2003B" x="8" y="6" width="5" height="1"></rect>
                    <g id="Group-4" transform="translate(6.500000, 6.500000) rotate(-270.000000) translate(-6.500000, -6.500000) translate(0.000000, 6.000000)" fill="#E2003B">
                        <rect id="Rectangle-2-Copy-2" x="0" y="0" width="5" height="1"></rect>
                        <rect id="Rectangle-2-Copy-3" x="8" y="-1.77635684e-15" width="5" height="1"></rect>
                    </g>
                </g>
                <g id="Page-1" transform="translate(90.000000, 10.000000) scale(-1, 1) translate(-90.000000, -10.000000) translate(84.000000, 4.000000)">
                    <mask id="mask-2" fill="white">
                        <use xlink:href="#path-1"></use>
                    </mask>
                    <g id="Clip-2"></g>
                    <path d="M7.637235,7.33875556 C5.919435,7.33875556 4.521735,5.95845926 4.521735,4.26186667 C4.521735,2.56542222 5.919435,1.18512593 7.637235,1.18512593 C9.355035,1.18512593 10.752585,2.56542222 10.752585,4.26186667 C10.752585,5.95845926 9.355035,7.33875556 7.637235,7.33875556 M7.637235,-5.92592592e-05 C5.257785,-5.92592592e-05 3.321735,1.91194074 3.321735,4.26186667 C3.321735,5.22779259 3.649335,6.1194963 4.199985,6.83505185 L0.197685,10.7879407 C-0.065865,11.048237 -0.065865,11.4704593 0.197685,11.7306074 C0.329385,11.8608296 0.502335,11.9260148 0.674985,11.9260148 C0.847635,11.9260148 1.020585,11.8608296 1.152285,11.7306074 L5.174085,7.75845926 C5.873085,8.24023704 6.721935,8.52394074 7.637235,8.52394074 C10.016685,8.52394074 11.952585,6.61194074 11.952585,4.26186667 C11.952585,1.91194074 10.016685,-5.92592592e-05 7.637235,-5.92592592e-05" id="Fill-1" fill="#E2003B" mask="url(#mask-2)"></path>
                </g>
                <g id="Page-1" transform="translate(90.000000, 34.000000) scale(-1, 1) translate(-90.000000, -34.000000) translate(84.000000, 28.000000)">
                    <mask id="mask-4" fill="white">
                        <use xlink:href="#path-3"></use>
                    </mask>
                    <g id="Clip-2"></g>
                    <path d="M7.637235,7.33875556 C5.919435,7.33875556 4.521735,5.95845926 4.521735,4.26186667 C4.521735,2.56542222 5.919435,1.18512593 7.637235,1.18512593 C9.355035,1.18512593 10.752585,2.56542222 10.752585,4.26186667 C10.752585,5.95845926 9.355035,7.33875556 7.637235,7.33875556 M7.637235,-5.92592592e-05 C5.257785,-5.92592592e-05 3.321735,1.91194074 3.321735,4.26186667 C3.321735,5.22779259 3.649335,6.1194963 4.199985,6.83505185 L0.197685,10.7879407 C-0.065865,11.048237 -0.065865,11.4704593 0.197685,11.7306074 C0.329385,11.8608296 0.502335,11.9260148 0.674985,11.9260148 C0.847635,11.9260148 1.020585,11.8608296 1.152285,11.7306074 L5.174085,7.75845926 C5.873085,8.24023704 6.721935,8.52394074 7.637235,8.52394074 C10.016685,8.52394074 11.952585,6.61194074 11.952585,4.26186667 C11.952585,1.91194074 10.016685,-5.92592592e-05 7.637235,-5.92592592e-05" id="Fill-1" fill="#4B556A" mask="url(#mask-4)"></path>
                </g>
                <g id="Group-3" transform="translate(113.253048, 35.253048) rotate(-45.000000) translate(-113.253048, -35.253048) translate(106.253048, 27.753048)" fill="#4B556A">
                    <rect id="Rectangle" x="1.13686838e-13" y="7.05882353" width="14" height="1.32352941"></rect>
                    <rect id="Rectangle-Copy" transform="translate(7.000000, 7.720588) rotate(-270.000000) translate(-7.000000, -7.720588) " x="5.35571587e-13" y="7.05882353" width="14" height="1.32352941"></rect>
                </g>
                <g id="Group-3-Copy" transform="translate(113.253048, 10.253048) rotate(-45.000000) translate(-113.253048, -10.253048) translate(106.253048, 2.753048)" fill="#DF0D40">
                    <rect id="Rectangle" x="1.56319402e-13" y="7.05882353" width="14" height="1.32352941"></rect>
                    <rect id="Rectangle-Copy" transform="translate(7.000000, 7.720588) rotate(-270.000000) translate(-7.000000, -7.720588) " x="5.49782442e-13" y="7.05882353" width="14" height="1.32352941"></rect>
                </g>
                <g id="icon-帮助" transform="translate(133.000000, 3.000000)">
                    <mask id="mask-6" fill="white">
                        <use xlink:href="#path-5"></use>
                    </mask>
                    <g id="Clip-2"></g>
                    <path d="M8.42017273,4.25164091 C8.24930909,4.11005 8.05012727,4.00059545 7.82867273,3.92677727 C7.60785455,3.85391364 7.36762727,3.81668636 7.11530909,3.81668636 C6.79076364,3.81668636 6.49771818,3.86727727 6.24380909,3.96655 C5.98862727,4.06709545 5.76844545,4.20900455 5.58930909,4.38877727 C5.40953636,4.56918636 5.27176364,4.79095909 5.18044545,5.04773182 C5.09008182,5.30195909 5.04426364,5.58705 5.04426364,5.89568636 L5.04426364,5.97395909 L5.75603636,5.97395909 L5.75380909,5.89377727 C5.74808182,5.68218636 5.77385455,5.48427727 5.82921818,5.30609545 C5.88458182,5.12982273 5.96794545,4.97423182 6.07803636,4.84345909 C6.18653636,4.71459545 6.32749091,4.61182273 6.49708182,4.53705 C6.66762727,4.46227727 6.86680909,4.42473182 7.0889,4.42473182 C7.24799091,4.42473182 7.40103636,4.45145909 7.5439,4.50491364 C7.68612727,4.55805 7.81244545,4.63155 7.91935455,4.72445909 C8.02467273,4.81609545 8.10962727,4.92936818 8.17230909,5.06077727 C8.23403636,5.19218636 8.26553636,5.33823182 8.26553636,5.49541364 C8.26553636,5.70159545 8.21462727,5.89123182 8.11408182,6.06018636 C8.01035455,6.23391364 7.87799091,6.39395909 7.72176364,6.53491364 C7.53403636,6.69973182 7.37208182,6.84991364 7.23971818,6.98100455 C7.10353636,7.11623182 6.99280909,7.25941364 6.91071818,7.40705 C6.82799091,7.55564091 6.76753636,7.72332273 6.73094545,7.90659545 C6.69467273,8.08764091 6.6794,8.31386818 6.68576364,8.57955 L6.68767273,8.65591364 L7.39371818,8.65591364 L7.39530909,8.57955 C7.40103636,8.32118636 7.41249091,8.12200455 7.42999091,7.98677727 C7.4459,7.85886818 7.47835455,7.74941364 7.52608182,7.66159545 C7.57476364,7.57282273 7.65049091,7.48055 7.75167273,7.38795909 C7.86049091,7.28836818 8.00558182,7.14995909 8.18599091,6.97527727 C8.41221818,6.76718636 8.60121818,6.54732273 8.74726364,6.32141364 C8.89871818,6.08818636 8.97508182,5.80214091 8.97508182,5.46995909 C8.97508182,5.20968636 8.92512727,4.97455 8.82680909,4.77186818 C8.72880909,4.56982273 8.59167273,4.39482273 8.42017273,4.25164091 L8.42017273,4.25164091 Z M6.59794545,10.1800045 L7.49171818,10.1800045 L7.49171818,9.12077727 L6.59794545,9.12077727 L6.59794545,10.1800045 Z M7.00012727,13.3637318 C3.48549091,13.3637318 0.636490909,10.5147318 0.636490909,7.00009545 C0.636490909,3.48545909 3.48549091,0.636459091 7.00012727,0.636459091 C10.5147636,0.636459091 13.3637636,3.48545909 13.3637636,7.00009545 C13.3637636,10.5147318 10.5147636,13.3637318 7.00012727,13.3637318 L7.00012727,13.3637318 Z M7.00012727,9.54545454e-05 C3.1339,9.54545454e-05 0.000127272727,3.13418636 0.000127272727,7.00009545 C0.000127272727,10.8660045 3.1339,14.0000955 7.00012727,14.0000955 C10.8660364,14.0000955 14.0001273,10.8660045 14.0001273,7.00009545 C14.0001273,3.13418636 10.8660364,9.54545454e-05 7.00012727,9.54545454e-05 L7.00012727,9.54545454e-05 Z" id="Fill-1" fill="#E2003B" mask="url(#mask-6)"></path>
                </g>
                <g id="搜索" transform="translate(68.000000, 35.000000) scale(-1, 1) translate(-68.000000, -35.000000) translate(62.000000, 29.000000)">
                    <mask id="mask-8" fill="white">
                        <use xlink:href="#path-7"></use>
                    </mask>
                    <g id="Clip-2"></g>
                    <path d="M7.637235,7.33875556 C5.919435,7.33875556 4.521735,5.95845926 4.521735,4.26186667 C4.521735,2.56542222 5.919435,1.18512593 7.637235,1.18512593 C9.355035,1.18512593 10.752585,2.56542222 10.752585,4.26186667 C10.752585,5.95845926 9.355035,7.33875556 7.637235,7.33875556 M7.637235,-5.92592593e-05 C5.257785,-5.92592593e-05 3.321735,1.91194074 3.321735,4.26186667 C3.321735,5.22779259 3.649335,6.1194963 4.199985,6.83505185 L0.197685,10.7879407 C-0.065865,11.048237 -0.065865,11.4704593 0.197685,11.7306074 C0.329385,11.8608296 0.502335,11.9260148 0.674985,11.9260148 C0.847635,11.9260148 1.020585,11.8608296 1.152285,11.7306074 L5.174085,7.75845926 C5.873085,8.24023704 6.721935,8.52394074 7.637235,8.52394074 C10.016685,8.52394074 11.952585,6.61194074 11.952585,4.26186667 C11.952585,1.91194074 10.016685,-5.92592593e-05 7.637235,-5.92592593e-05" id="Fill-1" fill="#D4D4D4" mask="url(#mask-8)"></path>
                </g>
            </g>
        </g>
    </g>
</svg>