<?xml version="1.0" encoding="UTF-8"?>
<svg width="140px" height="38px" viewBox="0 0 140 38" version="1.1" xmlns="http://www.w3.org/2000/svg" xmlns:xlink="http://www.w3.org/1999/xlink">
    <!-- Generator: Sketch 43 (38999) - http://www.bohemiancoding.com/sketch -->
    <title>实例详情-icons</title>
    <desc>Created with Sketch.</desc>
    <defs></defs>
    <g id="Page-1" stroke="none" stroke-width="1" fill="none" fill-rule="evenodd">
        <g id="Artboard" transform="translate(-34.000000, -276.000000)" fill-rule="nonzero">
            <g id="实例详情-icons" transform="translate(34.000000, 276.000000)">
                <g id="编辑" transform="translate(0.000000, 2.000000)" fill="#E2003B">
                    <path d="M2.82669537,7.64914573 C2.82669537,7.74938023 2.86114101,7.84961474 2.96447793,7.94984925 C3.03336921,8.01667225 3.13670614,8.05008375 3.2744887,8.05008375 C3.37782562,8.05008375 3.51560818,8.01667225 3.58449946,7.91643774 L9.85360603,0.732964824 C9.92249731,0.66614182 9.99138859,0.565907314 9.99138859,0.432261307 C9.99138859,0.298615299 9.95694295,0.231792295 9.85360603,0.131557789 C9.68137783,-0.0354997208 9.4058127,-0.0354997208 9.2335845,0.131557789 L2.96447793,7.31503071 C2.86114101,7.41526521 2.82669537,7.54891122 2.82669537,7.64914573 L2.82669537,7.64914573 Z" id="Shape"></path>
                    <path d="M9.54359526,5.07646008 C9.30247578,5.07646008 9.13024758,5.24351759 9.13024758,5.4773981 L9.13024758,9.28630932 C9.13024758,9.45336683 8.99246502,9.58701284 8.78579117,9.58701284 L1.17330463,9.58701284 C1.00107643,9.58701284 0.828848224,9.45336683 0.828848224,9.28630932 L0.828848224,2.16965941 C0.828848224,2.0026019 0.966630786,1.86895589 1.17330463,1.86895589 L4.7212056,1.86895589 C4.96232508,1.86895589 5.13455328,1.70189838 5.13455328,1.46801787 C5.13455328,1.23413735 4.92787944,1.06707984 4.7212056,1.06707984 L1.17330463,1.06707984 C0.51883746,1.06707984 0.00215285253,1.56825237 0.00215285253,2.16965941 L0.00215285253,9.28630932 C0.00215285253,9.88771636 0.51883746,10.3888889 1.17330463,10.3888889 L8.78579117,10.3888889 C9.44025834,10.3888889 9.95694295,9.88771636 9.95694295,9.28630932 L9.95694295,5.4773981 C9.95694295,5.24351759 9.75026911,5.07646008 9.54359526,5.07646008 L9.54359526,5.07646008 Z" id="Shape"></path>
                </g>
                <g id="拓扑" transform="translate(22.000000, 2.000000)" stroke="#E2003B" stroke-width="0.2" fill="#E2003B">
                    <path d="M10.8322618,3.20305802 C10.2753916,3.20305802 9.82458928,3.62023281 9.74503835,4.17646107 L7.43796543,4.17646107 C7.33188383,3.06399019 6.48332685,2.17401922 5.42260666,2.06277645 L5.42260666,1.58998027 C5.74081039,1.50654819 5.9794769,1.20061617 5.97947688,0.811252077 C5.97947688,0.36625224 5.63474247,0.00471319133 5.21044345,0.00471319133 C4.99830763,0.00471319133 4.81267509,0.088145273 4.68009021,0.227198756 C4.54750531,0.36625224 4.46795438,0.588766511 4.46795438,0.783441383 C4.46795438,1.0059413 4.54750531,1.20061617 4.68009021,1.33966964 C4.78617181,1.45092678 4.8922534,1.50654817 5.0248383,1.53435887 L5.0248383,2.00715504 C3.96411811,2.11841219 3.11554744,3.00836879 3.00946583,4.12083968 L1.57749426,4.12083968 C1.5509636,3.9817862 1.47141266,3.84271838 1.36533105,3.75928628 C1.20622918,3.6202328 1.02059664,3.53680072 0.808460829,3.53680073 C0.384175492,3.53680073 0.012924107,3.89835413 0.012924107,4.3711503 C0.012924107,4.84394647 0.357658515,5.20549988 0.808460829,5.20549988 C1.02059666,5.20549988 1.20622919,5.12206779 1.36533105,4.95518926 C1.47141266,4.84394649 1.52444661,4.7327037 1.57749426,4.59363586 L3.00945213,4.59363586 C3.11553374,5.70610675 3.96410441,6.59607771 5.0248246,6.70733486 L5.0248246,8.51510185 C4.46794068,8.62634463 4.04365534,9.12695151 4.04365536,9.73880116 C4.04365536,10.0725439 4.17624025,10.3784615 4.38838975,10.6287865 C4.60052558,10.8512864 4.9187567,10.9903399 5.23697413,10.9903399 C5.89992595,10.9903399 6.43027921,10.4340973 6.4302792,9.73881551 C6.4302792,9.1269515 6.00598017,8.62634463 5.44910994,8.51511621 L5.44910994,6.70734921 C6.50983013,6.59609207 7.3584008,5.7061211 7.46446872,4.59365022 L9.77154163,4.59365022 C9.87762324,5.14987847 10.3284256,5.56706763 10.8852958,5.56706763 C11.1769825,5.56706763 11.4686967,5.45582486 11.6808325,5.23332494 C11.8929683,5.01083937 11.9990499,4.70490737 11.9990499,4.39897536 C11.946016,3.73148996 11.442166,3.20305802 10.8322618,3.20305802 L10.8322618,3.20305802 Z M1.07364429,4.64927162 C0.994093365,4.7327037 0.914542421,4.76052876 0.808460829,4.76052875 C0.596311318,4.78833944 0.410692468,4.59365022 0.410692468,4.37116466 C0.410692468,4.14867911 0.569794341,3.98178622 0.781943853,3.98178622 C0.888011759,3.98178622 0.994093365,4.0374076 1.04712732,4.09304334 C1.12667825,4.17647543 1.15319522,4.25990752 1.15319522,4.37116466 C1.15319522,4.48240744 1.15319522,4.59363588 1.07364429,4.64927162 L1.07364429,4.64927162 Z M4.86570904,0.811252077 C4.86570904,0.699994934 4.89223971,0.616562852 4.97179065,0.560941464 C5.05134158,0.477509383 5.13089252,0.449698689 5.23697413,0.449698675 C5.42260666,0.449698675 5.58170854,0.616562852 5.58170852,0.811252077 C5.58170852,1.0059413 5.42260665,1.17280548 5.23697413,1.17280548 C5.13089252,1.17280548 5.05134159,1.14499478 4.97179065,1.06154834 C4.89223972,1.0059413 4.86570904,0.922494852 4.86570904,0.811252077 L4.86570904,0.811252077 Z M5.97947688,9.71100482 C5.97947688,10.1559903 5.63474247,10.5175293 5.21044345,10.5175293 C4.99830763,10.5175293 4.81267509,10.4340973 4.65357323,10.2672331 C4.52098833,10.1003545 4.41490674,9.90567968 4.41490673,9.68317977 C4.41490673,9.23819429 4.75965482,8.87665525 5.18394016,8.87665524 C5.6082255,8.87665523 5.97947688,9.26600497 5.97947688,9.71100482 L5.97947688,9.71100482 Z M5.21044345,6.26234937 C4.20275722,6.26234937 3.40722049,5.4001891 3.40722049,4.3711503 C3.40722049,3.3143008 4.22928788,2.47995122 5.21044345,2.47995123 C6.19161271,2.47995123 7.01368009,3.34211151 7.01368009,4.3711503 C7.01368009,5.42799979 6.21814337,6.26234937 5.21044345,6.26234937 L5.21044345,6.26234937 Z M11.3360981,4.89958223 C11.2035132,5.03863571 11.044384,5.12206779 10.8587788,5.12206779 C10.4610104,5.12206779 10.142793,4.78832509 10.142793,4.3711503 C10.142793,3.95397551 10.4344798,3.62023281 10.8322481,3.62023281 C11.2300165,3.62023281 11.5482339,3.95397552 11.5482339,4.3711503 C11.5482476,4.56583952 11.4686967,4.76052875 11.3360981,4.89958223 L11.3360981,4.89958223 Z" id="Shape"></path>
                </g>
                <g id="icon_服务中间件" transform="translate(45.000000, 2.000000)" fill="#4B5569">
                    <polygon id="Shape" points="2.68405492 6.27039879 2.68405492 6.27039879 2.68405492 6.27039879 2.96024592 6.27039879"></polygon>
                    <path d="M16.5865538,6.34413092 L9.57555149,6.34413092 C9.37637529,6.34413092 9.17719908,6.52846123 9.17719908,6.71279154 L9.17719908,10.6943263 C9.17719908,10.9155227 9.37637529,11.0629869 9.57555149,11.0629869 L16.5865538,11.0629869 C16.78573,11.0629869 16.9849062,10.9155227 16.9849062,10.6943263 L16.9849062,6.71279154 C16.9849062,6.49159517 16.78573,6.34413092 16.5865538,6.34413092 Z M16.2280366,9.92013897 C16.2280366,10.1782014 16.0288604,10.3625317 15.7500137,10.3625317 L10.4120915,10.3625317 C10.1332449,10.3625317 9.93406865,10.1782014 9.93406865,9.92013897 L9.93406865,7.48697885 C9.93406865,7.22891641 10.1332449,7.0445861 10.4120915,7.0445861 L15.7101785,7.0445861 C15.9890252,7.0445861 16.1882014,7.22891641 16.1882014,7.48697885 L16.1882014,9.92013897 L16.2280366,9.92013897 Z" id="Shape"></path>
                    <polygon id="Shape" points="11.4478078 11.4685136 14.7142975 11.4685136 14.7142975 12.0101803 11.4478078 12.0101803"></polygon>
                    <path d="M7.38461327,0.00316817724 L0.413446224,0.00316817724 C0.174434783,0.00316817724 0.0150938215,0.187498489 0.0150938215,0.371828802 L0.0150938215,4.35336354 C0.0150938215,4.57455992 0.174434783,4.72202417 0.413446224,4.72202417 L7.42444851,4.72202417 C7.66345995,4.72202417 7.82280092,4.57455992 7.82280092,4.35336354 L7.82280092,0.371828802 C7.78296568,0.150632427 7.62362471,0.00316817724 7.38461327,0.00316817724 Z M7.02609611,3.57917623 C7.02609611,3.83723867 6.82691991,4.02156898 6.54807323,4.02156898 L1.24998627,4.02156898 C0.971139588,4.02156898 0.771963387,3.83723867 0.771963387,3.57917623 L0.771963387,1.14601611 C0.771963387,0.887953676 0.971139588,0.703623364 1.24998627,0.703623364 L6.54807323,0.703623364 C6.82691991,0.703623364 7.02609611,0.887953676 7.02609611,1.14601611 L7.02609611,3.57917623 Z" id="Shape"></path>
                    <polygon id="Shape" points="2.28570252 5.12755086 5.55219222 5.12755086 5.55219222 5.66921752 2.28570252 5.66921752 2.28570252 5.12755086"></polygon>
                    <polygon id="Shape" points="12.6827002 2.4363283 13.2493669 2.4363283 13.2493669 6.4547291 12.6827002 6.4547291 12.6827002 2.4363283"></polygon>
                    <path d="M13.1607231,0.371828802 C12.4436888,0.371828802 11.8859954,0.924819738 11.8859954,1.5515428 C11.8859954,2.17826586 12.483524,2.7312568 13.1607231,2.7312568 C13.8777574,2.7312568 14.4354508,2.17826586 14.4354508,1.5515428 C14.4354508,0.924819738 13.8777574,0.371828802 13.1607231,0.371828802 Z M13.1607231,2.25199799 C12.7623707,2.25199799 12.4038535,1.95706949 12.4038535,1.5515428 C12.4038535,1.14601611 12.7225355,0.851087613 13.1607231,0.851087613 C13.5989108,0.851087613 13.9175927,1.14601611 13.9175927,1.5515428 C13.9175927,1.95706949 13.5989108,2.25199799 13.1607231,2.25199799 Z" id="Shape"></path>
                    <polygon id="Shape" points="4.83515789 9.1090856 9.17719908 9.1090856 9.17719908 9.65075227 4.83515789 9.65075227 4.83515789 9.1090856"></polygon>
                    <polygon id="Shape" points="7.78296568 1.36721249 12.1250069 1.36721249 12.1250069 1.90887915 7.78296568 1.90887915 7.78296568 1.36721249"></polygon>
                    <polygon id="Shape" points="3.79944165 5.56994361 4.36610831 5.56994361 4.36610831 8.62982679 3.79944165 8.62982679"></polygon>
                    <path d="M3.79944165,8.29803223 C3.08240732,8.29803223 2.52471396,8.85102316 2.52471396,9.47774622 C2.52471396,10.1044693 3.12224256,10.6574602 3.79944165,10.6574602 C4.47664073,10.6574602 5.07416934,10.1044693 5.07416934,9.47774622 C5.07416934,8.85102316 4.51647597,8.29803223 3.79944165,8.29803223 Z M3.79944165,10.1782014 C3.40108924,10.1782014 3.04257208,9.88327291 3.04257208,9.47774622 C3.04257208,9.07221954 3.361254,8.77729104 3.79944165,8.77729104 C4.23762929,8.77729104 4.55631121,9.07221954 4.55631121,9.47774622 C4.55631121,9.88327291 4.19779405,10.1782014 3.79944165,10.1782014 Z" id="Shape"></path>
                </g>
                <g id="icon_服务中间件-copy-2" transform="translate(45.000000, 25.000000)" fill="#DF0D40">
                    <polygon id="Shape" points="2.68405492 6.27039879 2.68405492 6.27039879 2.68405492 6.27039879 2.96024592 6.27039879"></polygon>
                    <path d="M16.5865538,6.34413092 L9.57555149,6.34413092 C9.37637529,6.34413092 9.17719908,6.52846123 9.17719908,6.71279154 L9.17719908,10.6943263 C9.17719908,10.9155227 9.37637529,11.0629869 9.57555149,11.0629869 L16.5865538,11.0629869 C16.78573,11.0629869 16.9849062,10.9155227 16.9849062,10.6943263 L16.9849062,6.71279154 C16.9849062,6.49159517 16.78573,6.34413092 16.5865538,6.34413092 Z M16.2280366,9.92013897 C16.2280366,10.1782014 16.0288604,10.3625317 15.7500137,10.3625317 L10.4120915,10.3625317 C10.1332449,10.3625317 9.93406865,10.1782014 9.93406865,9.92013897 L9.93406865,7.48697885 C9.93406865,7.22891641 10.1332449,7.0445861 10.4120915,7.0445861 L15.7101785,7.0445861 C15.9890252,7.0445861 16.1882014,7.22891641 16.1882014,7.48697885 L16.1882014,9.92013897 L16.2280366,9.92013897 Z" id="Shape"></path>
                    <polygon id="Shape" points="11.4478078 11.4685136 14.7142975 11.4685136 14.7142975 12.0101803 11.4478078 12.0101803"></polygon>
                    <path d="M7.38461327,0.00316817724 L0.413446224,0.00316817724 C0.174434783,0.00316817724 0.0150938215,0.187498489 0.0150938215,0.371828802 L0.0150938215,4.35336354 C0.0150938215,4.57455992 0.174434783,4.72202417 0.413446224,4.72202417 L7.42444851,4.72202417 C7.66345995,4.72202417 7.82280092,4.57455992 7.82280092,4.35336354 L7.82280092,0.371828802 C7.78296568,0.150632427 7.62362471,0.00316817724 7.38461327,0.00316817724 Z M7.02609611,3.57917623 C7.02609611,3.83723867 6.82691991,4.02156898 6.54807323,4.02156898 L1.24998627,4.02156898 C0.971139588,4.02156898 0.771963387,3.83723867 0.771963387,3.57917623 L0.771963387,1.14601611 C0.771963387,0.887953676 0.971139588,0.703623364 1.24998627,0.703623364 L6.54807323,0.703623364 C6.82691991,0.703623364 7.02609611,0.887953676 7.02609611,1.14601611 L7.02609611,3.57917623 Z" id="Shape"></path>
                    <polygon id="Shape" points="2.28570252 5.12755086 5.55219222 5.12755086 5.55219222 5.66921752 2.28570252 5.66921752 2.28570252 5.12755086"></polygon>
                    <polygon id="Shape" points="12.6827002 2.4363283 13.2493669 2.4363283 13.2493669 6.4547291 12.6827002 6.4547291 12.6827002 2.4363283"></polygon>
                    <path d="M13.1607231,0.371828802 C12.4436888,0.371828802 11.8859954,0.924819738 11.8859954,1.5515428 C11.8859954,2.17826586 12.483524,2.7312568 13.1607231,2.7312568 C13.8777574,2.7312568 14.4354508,2.17826586 14.4354508,1.5515428 C14.4354508,0.924819738 13.8777574,0.371828802 13.1607231,0.371828802 Z M13.1607231,2.25199799 C12.7623707,2.25199799 12.4038535,1.95706949 12.4038535,1.5515428 C12.4038535,1.14601611 12.7225355,0.851087613 13.1607231,0.851087613 C13.5989108,0.851087613 13.9175927,1.14601611 13.9175927,1.5515428 C13.9175927,1.95706949 13.5989108,2.25199799 13.1607231,2.25199799 Z" id="Shape"></path>
                    <polygon id="Shape" points="4.83515789 9.1090856 9.17719908 9.1090856 9.17719908 9.65075227 4.83515789 9.65075227 4.83515789 9.1090856"></polygon>
                    <polygon id="Shape" points="7.78296568 1.36721249 12.1250069 1.36721249 12.1250069 1.90887915 7.78296568 1.90887915 7.78296568 1.36721249"></polygon>
                    <polygon id="Shape" points="3.79944165 5.56994361 4.36610831 5.56994361 4.36610831 8.62982679 3.79944165 8.62982679"></polygon>
                    <path d="M3.79944165,8.29803223 C3.08240732,8.29803223 2.52471396,8.85102316 2.52471396,9.47774622 C2.52471396,10.1044693 3.12224256,10.6574602 3.79944165,10.6574602 C4.47664073,10.6574602 5.07416934,10.1044693 5.07416934,9.47774622 C5.07416934,8.85102316 4.51647597,8.29803223 3.79944165,8.29803223 Z M3.79944165,10.1782014 C3.40108924,10.1782014 3.04257208,9.88327291 3.04257208,9.47774622 C3.04257208,9.07221954 3.361254,8.77729104 3.79944165,8.77729104 C4.23762929,8.77729104 4.55631121,9.07221954 4.55631121,9.47774622 C4.55631121,9.88327291 4.19779405,10.1782014 3.79944165,10.1782014 Z" id="Shape"></path>
                </g>
                <g id="应用" transform="translate(74.000000, 2.000000)" fill="#4B5569">
                    <path d="M13.990389,2.56426117 C13.9695652,2.39266896 13.8510297,2.24352806 13.6764302,2.1954181 L7.21624714,0.0625429553 C7.1201373,0.00801832761 7.00320366,-0.0112256586 6.88627002,0.0192439863 L0.344393593,2.20504009 C0.172997712,2.25154639 0.0496567506,2.39266896 0.0224256293,2.55784651 C0.0176201373,2.58190149 0.0128146453,2.60595647 0.0128146453,2.63161512 L0.0128146453,10.4975945 C0.0128146453,10.7092784 0.164988558,10.8856816 0.365217391,10.9257732 L6.76132723,13.9214204 C6.79977117,13.9486827 6.84462243,13.9679267 6.89107551,13.9823597 L6.89427918,13.9839633 C6.91990847,13.990378 6.94553776,13.995189 6.97116705,13.9967927 C6.97757437,13.9967927 6.98398169,13.9983963 6.99038902,13.9983963 L7.02883295,13.9983963 C7.06086957,13.9967927 7.09290618,13.9919817 7.12494279,13.9839633 L7.12814645,13.9823597 C7.17299771,13.9695304 7.21624714,13.9486827 7.25469108,13.9230241 L13.6091533,10.9498282 C13.8270023,10.9241695 13.9919908,10.739748 13.9919908,10.5152348 L13.9919908,2.62520046 C13.9919908,2.60435281 13.9935927,2.58510882 13.990389,2.56426117 L13.990389,2.56426117 Z M6.56590389,12.8822451 L0.887414188,10.221764 L0.887414188,3.67880871 L6.56590389,5.58235968 L6.56590389,12.8822451 Z M6.99519451,4.80297824 L1.16132723,2.84810997 L6.99038902,0.902863688 L12.8306636,2.83207331 L6.99519451,4.80297824 L6.99519451,4.80297824 Z M13.1173913,10.226575 L7.4389016,12.8822451 L7.4389016,5.57113402 L13.1173913,3.65315006 L13.1173913,10.226575 Z" id="Shape"></path>
                </g>
                <g id="应用-copy" transform="translate(74.000000, 24.000000)" fill="#DC1644">
                    <path d="M13.990389,2.56426117 C13.9695652,2.39266896 13.8510297,2.24352806 13.6764302,2.1954181 L7.21624714,0.0625429553 C7.1201373,0.00801832761 7.00320366,-0.0112256586 6.88627002,0.0192439863 L0.344393593,2.20504009 C0.172997712,2.25154639 0.0496567506,2.39266896 0.0224256293,2.55784651 C0.0176201373,2.58190149 0.0128146453,2.60595647 0.0128146453,2.63161512 L0.0128146453,10.4975945 C0.0128146453,10.7092784 0.164988558,10.8856816 0.365217391,10.9257732 L6.76132723,13.9214204 C6.79977117,13.9486827 6.84462243,13.9679267 6.89107551,13.9823597 L6.89427918,13.9839633 C6.91990847,13.990378 6.94553776,13.995189 6.97116705,13.9967927 C6.97757437,13.9967927 6.98398169,13.9983963 6.99038902,13.9983963 L7.02883295,13.9983963 C7.06086957,13.9967927 7.09290618,13.9919817 7.12494279,13.9839633 L7.12814645,13.9823597 C7.17299771,13.9695304 7.21624714,13.9486827 7.25469108,13.9230241 L13.6091533,10.9498282 C13.8270023,10.9241695 13.9919908,10.739748 13.9919908,10.5152348 L13.9919908,2.62520046 C13.9919908,2.60435281 13.9935927,2.58510882 13.990389,2.56426117 L13.990389,2.56426117 Z M6.56590389,12.8822451 L0.887414188,10.221764 L0.887414188,3.67880871 L6.56590389,5.58235968 L6.56590389,12.8822451 Z M6.99519451,4.80297824 L1.16132723,2.84810997 L6.99038902,0.902863688 L12.8306636,2.83207331 L6.99519451,4.80297824 L6.99519451,4.80297824 Z M13.1173913,10.226575 L7.4389016,12.8822451 L7.4389016,5.57113402 L13.1173913,3.65315006 L13.1173913,10.226575 Z" id="Shape"></path>
                </g>
                <g id="机柜" transform="translate(101.000000, 0.000000)" fill="#4B5569">
                    <path d="M0,0 L0,15.9406968 L12,15.9406968 L12,0 L0,0 Z M11.1549296,0.889547813 L11.1549296,4.25796887 L0.845070423,4.25796887 L0.845070423,0.889547813 L11.1549296,0.889547813 Z M11.1549296,3.50481838 L11.1549296,6.87323944 L0.845070423,6.87323944 L0.845070423,3.50481838 L11.1549296,3.50481838 Z M0.845070423,15.051149 L0.845070423,6.11475167 L11.1549296,6.11475167 L11.1549296,15.051149 L0.845070423,15.051149 Z M7.83549296,8.78339511 L10.235493,8.78339511 L10.235493,11.3097109 L7.83549296,11.3097109 L7.83549296,8.78339511 Z" id="Shape"></path>
                </g>
                <g id="机柜-copy" transform="translate(101.000000, 22.000000)" fill="#DC1644">
                    <path d="M0,0 L0,15.9406968 L12,15.9406968 L12,0 L0,0 Z M11.1549296,0.889547813 L11.1549296,4.25796887 L0.845070423,4.25796887 L0.845070423,0.889547813 L11.1549296,0.889547813 Z M11.1549296,3.50481838 L11.1549296,6.87323944 L0.845070423,6.87323944 L0.845070423,3.50481838 L11.1549296,3.50481838 Z M0.845070423,15.051149 L0.845070423,6.11475167 L11.1549296,6.11475167 L11.1549296,15.051149 L0.845070423,15.051149 Z M7.83549296,8.78339511 L10.235493,8.78339511 L10.235493,11.3097109 L7.83549296,11.3097109 L7.83549296,8.78339511 Z" id="Shape"></path>
                </g>
                <g id="数据中心" transform="translate(126.000000, 2.000000)" fill="#4B5569">
                    <path d="M6.99537852,0.00404761171 C4.16764913,0.00404760618 1.61835617,1.70743069 0.536230979,4.319912 C-0.545894216,6.93239332 0.0522543784,9.93948938 2.05176101,11.938996 C4.05126764,13.9385027 7.05836371,14.5366513 9.67084502,13.4545261 C12.2833263,12.3724009 13.9867094,9.82310792 13.9867094,6.99537852 C13.9919079,5.1395735 13.2569929,3.3582791 11.9447354,2.04602163 C10.6324779,0.733764168 8.85118355,-0.00115088685 6.99537852,0.00404761171 L6.99537852,0.00404761171 Z M10.491044,1.6885904 L10.491044,1.90936927 C10.492204,2.56037158 10.428352,3.20986275 10.3004382,3.84817571 C9.86094114,3.93637199 9.54295294,4.31985993 9.53764721,4.76808768 C9.53044558,5.02164053 9.63498197,5.26555878 9.82355585,5.43520783 C9.61419735,5.95486733 9.35892304,6.45482568 9.06076486,6.92914485 C7.84494707,5.55070687 7.05066199,3.85204284 6.77239187,2.03521322 C7.50447253,1.58688875 8.29634126,1.24447242 9.12442276,1.01815856 C9.60904676,1.176694 10.0690611,1.40236609 10.491044,1.6885904 L10.491044,1.6885904 Z M9.15606773,7.94951121 C9.71268224,8.48736335 10.3315704,8.95677948 10.9995713,9.3477774 C10.3079955,9.47718366 9.60574593,9.54100213 8.90217204,9.53838315 C8.58425046,9.53838315 8.26669685,9.50673818 7.94877527,9.50673818 C7.95375622,9.44154529 7.94276797,9.376121 7.91676234,9.31613242 C8.36263158,8.89130658 8.77695303,8.43455685 9.15643571,7.94951121 L9.15606773,7.94951121 Z M6.99537852,0.639890761 C7.34710109,0.640027643 7.69809284,0.671924788 8.04407815,0.735193637 C7.59920873,0.925799389 7.15433931,1.11640516 6.70946988,1.33902385 C6.68307551,1.11756231 6.67250039,0.89450104 6.67782491,0.671535733 C6.78153903,0.645400372 6.88854636,0.634736838 6.99537852,0.639890761 L6.99537852,0.639890761 Z M8.71156627,7.47262884 C8.36463368,7.9359884 7.98214316,8.37162653 7.56756376,8.77559215 C7.40490101,8.64727132 7.20249925,8.57984746 6.99537852,8.58498638 C6.5919306,8.58041122 6.23197994,8.83764643 6.10563967,9.22082953 C4.85099678,8.91935436 3.65033095,8.42625477 2.54594835,7.75890544 C2.83072101,6.6934749 3.29270874,5.68354534 3.91256955,4.77139936 C3.97622746,4.77139936 4.03988536,4.80304433 4.13334843,4.80304433 C4.38759861,4.80768289 4.63280323,4.70872626 4.81261517,4.52891432 C4.99242711,4.34910238 5.09138374,4.10389776 5.08674518,3.84964758 C5.08108451,3.72046356 5.05970775,3.59245016 5.02308728,3.46843606 C5.39248292,3.10356015 5.78585557,2.76378452 6.20057458,2.4513814 C6.5506531,4.32731095 7.42070494,6.06715964 8.71156627,7.47262884 L8.71156627,7.47262884 Z M1.59365548,10.3331871 C1.00259646,9.36404354 0.674022164,8.25772083 0.640258722,7.12306229 C1.01113827,7.44732636 1.40462833,7.74478026 1.81774604,8.01316911 C1.67977256,8.72548407 1.60588433,9.44872663 1.59696716,10.1742263 L1.59696716,10.3331871 L1.59365548,10.3331871 Z M2.00687994,7.37732596 C1.54529914,7.06304996 1.10958932,6.7123657 0.703916626,6.32862633 C1.03476296,3.46904709 3.23225806,1.18124397 6.07620249,0.735561598 C6.07620249,1.08512814 6.10784746,1.40304972 6.13986039,1.75261627 C5.60257004,2.13037736 5.09174673,2.54444546 4.61096672,2.99192167 C4.46660331,2.90547914 4.30084622,2.86136225 4.1326125,2.86460585 C3.87829728,2.85996426 3.63303447,2.95897085 3.45321121,3.13886351 C3.27338795,3.31875617 3.17447601,3.56405717 3.17921573,3.81837057 C3.19012295,4.0373282 3.26709519,4.24784725 3.39999461,4.42220079 C2.75945109,5.31433147 2.28686711,6.31573566 2.00540808,7.37732596 L2.00687994,7.37732596 Z M2.29278858,11.2545709 C2.26114361,10.9050044 2.22913067,10.5554378 2.22913066,10.1742263 C2.22795467,9.57578886 2.29186567,8.9789983 2.41973643,8.39438063 C3.56493633,9.07080328 4.80882936,9.56406478 6.1063756,9.85630472 C6.10298962,9.88198612 6.1155029,9.90715819 6.13802057,9.91996263 C5.00261377,10.6555455 3.72460799,11.1429482 2.38772349,11.3502417 C2.34851206,11.3268739 2.31585298,11.2939616 2.29278858,11.2545709 L2.29278858,11.2545709 Z M6.99648242,13.3519702 C5.50695085,13.3477338 4.06654234,12.818785 2.92826375,11.8580331 C4.22562052,11.6140681 5.4588718,11.1056619 6.55124502,10.3644641 C6.6818063,10.4540192 6.8379423,10.4987033 6.99611445,10.4917799 C7.29481822,10.4857492 7.57494943,10.345616 7.75890544,10.1102004 C8.14011696,10.1418454 8.52169644,10.1738583 8.90290796,10.1738583 C9.89821547,10.1710199 10.8898948,10.0537272 11.8584011,9.82429179 C12.0749736,9.93286976 12.2978708,10.0283445 12.5258892,10.1102004 C11.4095275,12.116607 9.29143938,13.3582886 6.99537852,13.3523381 L6.99648242,13.3519702 Z M11.922427,9.15717163 C11.0293143,8.70700907 10.2139167,8.1169514 9.50710614,7.4093389 C9.84705418,6.87182431 10.1445369,6.30860022 10.396845,5.72479612 L10.491044,5.72479612 C10.7452942,5.72943468 10.9904988,5.63047805 11.1703107,5.45066611 C11.3501227,5.27085417 11.4490793,5.02564954 11.4444407,4.77139936 C11.4435825,4.40484357 11.23336,4.07100286 10.9031645,3.91183363 C11.0310501,3.33792471 11.0949751,2.75161654 11.0937703,2.16363294 C12.5082525,3.36954495 13.3216657,5.13588669 13.3184854,6.99464259 C13.3165096,7.59671181 13.2309379,8.19559029 13.0642217,8.77412029 C12.6969943,8.93962736 12.3141186,9.06795112 11.9213231,9.15717163 L11.922427,9.15717163 Z" id="Shape"></path>
                </g>
                <g id="数据中心-copy" transform="translate(126.000000, 24.000000)" fill="#D91C47">
                    <path d="M6.99537852,0.00404761171 C4.16764913,0.00404760618 1.61835617,1.70743069 0.536230979,4.319912 C-0.545894216,6.93239332 0.0522543784,9.93948938 2.05176101,11.938996 C4.05126764,13.9385027 7.05836371,14.5366513 9.67084502,13.4545261 C12.2833263,12.3724009 13.9867094,9.82310792 13.9867094,6.99537852 C13.9919079,5.1395735 13.2569929,3.3582791 11.9447354,2.04602163 C10.6324779,0.733764168 8.85118355,-0.00115088685 6.99537852,0.00404761171 L6.99537852,0.00404761171 Z M10.491044,1.6885904 L10.491044,1.90936927 C10.492204,2.56037158 10.428352,3.20986275 10.3004382,3.84817571 C9.86094114,3.93637199 9.54295294,4.31985993 9.53764721,4.76808768 C9.53044558,5.02164053 9.63498197,5.26555878 9.82355585,5.43520783 C9.61419735,5.95486733 9.35892304,6.45482568 9.06076486,6.92914485 C7.84494707,5.55070687 7.05066199,3.85204284 6.77239187,2.03521322 C7.50447253,1.58688875 8.29634126,1.24447242 9.12442276,1.01815856 C9.60904676,1.176694 10.0690611,1.40236609 10.491044,1.6885904 L10.491044,1.6885904 Z M9.15606773,7.94951121 C9.71268224,8.48736335 10.3315704,8.95677948 10.9995713,9.3477774 C10.3079955,9.47718366 9.60574593,9.54100213 8.90217204,9.53838315 C8.58425046,9.53838315 8.26669685,9.50673818 7.94877527,9.50673818 C7.95375622,9.44154529 7.94276797,9.376121 7.91676234,9.31613242 C8.36263158,8.89130658 8.77695303,8.43455685 9.15643571,7.94951121 L9.15606773,7.94951121 Z M6.99537852,0.639890761 C7.34710109,0.640027643 7.69809284,0.671924788 8.04407815,0.735193637 C7.59920873,0.925799389 7.15433931,1.11640516 6.70946988,1.33902385 C6.68307551,1.11756231 6.67250039,0.89450104 6.67782491,0.671535733 C6.78153903,0.645400372 6.88854636,0.634736838 6.99537852,0.639890761 L6.99537852,0.639890761 Z M8.71156627,7.47262884 C8.36463368,7.9359884 7.98214316,8.37162653 7.56756376,8.77559215 C7.40490101,8.64727132 7.20249925,8.57984746 6.99537852,8.58498638 C6.5919306,8.58041122 6.23197994,8.83764643 6.10563967,9.22082953 C4.85099678,8.91935436 3.65033095,8.42625477 2.54594835,7.75890544 C2.83072101,6.6934749 3.29270874,5.68354534 3.91256955,4.77139936 C3.97622746,4.77139936 4.03988536,4.80304433 4.13334843,4.80304433 C4.38759861,4.80768289 4.63280323,4.70872626 4.81261517,4.52891432 C4.99242711,4.34910238 5.09138374,4.10389776 5.08674518,3.84964758 C5.08108451,3.72046356 5.05970775,3.59245016 5.02308728,3.46843606 C5.39248292,3.10356015 5.78585557,2.76378452 6.20057458,2.4513814 C6.5506531,4.32731095 7.42070494,6.06715964 8.71156627,7.47262884 L8.71156627,7.47262884 Z M1.59365548,10.3331871 C1.00259646,9.36404354 0.674022164,8.25772083 0.640258722,7.12306229 C1.01113827,7.44732636 1.40462833,7.74478026 1.81774604,8.01316911 C1.67977256,8.72548407 1.60588433,9.44872663 1.59696716,10.1742263 L1.59696716,10.3331871 L1.59365548,10.3331871 Z M2.00687994,7.37732596 C1.54529914,7.06304996 1.10958932,6.7123657 0.703916626,6.32862633 C1.03476296,3.46904709 3.23225806,1.18124397 6.07620249,0.735561598 C6.07620249,1.08512814 6.10784746,1.40304972 6.13986039,1.75261627 C5.60257004,2.13037736 5.09174673,2.54444546 4.61096672,2.99192167 C4.46660331,2.90547914 4.30084622,2.86136225 4.1326125,2.86460585 C3.87829728,2.85996426 3.63303447,2.95897085 3.45321121,3.13886351 C3.27338795,3.31875617 3.17447601,3.56405717 3.17921573,3.81837057 C3.19012295,4.0373282 3.26709519,4.24784725 3.39999461,4.42220079 C2.75945109,5.31433147 2.28686711,6.31573566 2.00540808,7.37732596 L2.00687994,7.37732596 Z M2.29278858,11.2545709 C2.26114361,10.9050044 2.22913067,10.5554378 2.22913066,10.1742263 C2.22795467,9.57578886 2.29186567,8.9789983 2.41973643,8.39438063 C3.56493633,9.07080328 4.80882936,9.56406478 6.1063756,9.85630472 C6.10298962,9.88198612 6.1155029,9.90715819 6.13802057,9.91996263 C5.00261377,10.6555455 3.72460799,11.1429482 2.38772349,11.3502417 C2.34851206,11.3268739 2.31585298,11.2939616 2.29278858,11.2545709 L2.29278858,11.2545709 Z M6.99648242,13.3519702 C5.50695085,13.3477338 4.06654234,12.818785 2.92826375,11.8580331 C4.22562052,11.6140681 5.4588718,11.1056619 6.55124502,10.3644641 C6.6818063,10.4540192 6.8379423,10.4987033 6.99611445,10.4917799 C7.29481822,10.4857492 7.57494943,10.345616 7.75890544,10.1102004 C8.14011696,10.1418454 8.52169644,10.1738583 8.90290796,10.1738583 C9.89821547,10.1710199 10.8898948,10.0537272 11.8584011,9.82429179 C12.0749736,9.93286976 12.2978708,10.0283445 12.5258892,10.1102004 C11.4095275,12.116607 9.29143938,13.3582886 6.99537852,13.3523381 L6.99648242,13.3519702 Z M11.922427,9.15717163 C11.0293143,8.70700907 10.2139167,8.1169514 9.50710614,7.4093389 C9.84705418,6.87182431 10.1445369,6.30860022 10.396845,5.72479612 L10.491044,5.72479612 C10.7452942,5.72943468 10.9904988,5.63047805 11.1703107,5.45066611 C11.3501227,5.27085417 11.4490793,5.02564954 11.4444407,4.77139936 C11.4435825,4.40484357 11.23336,4.07100286 10.9031645,3.91183363 C11.0310501,3.33792471 11.0949751,2.75161654 11.0937703,2.16363294 C12.5082525,3.36954495 13.3216657,5.13588669 13.3184854,6.99464259 C13.3165096,7.59671181 13.2309379,8.19559029 13.0642217,8.77412029 C12.6969943,8.93962736 12.3141186,9.06795112 11.9213231,9.15717163 L11.922427,9.15717163 Z" id="Shape"></path>
                </g>
            </g>
        </g>
    </g>
</svg>